<svg width="416" height="340" viewBox="0 0 416 340" fill="none" xmlns="http://www.w3.org/2000/svg">
<g clip-path="url(#clip0_623_5949)">
<path d="M146.981 36.1702C160.439 63.1986 166.557 92.684 166.557 123.398C166.557 230.897 81.5255 318.739 -23.6932 318.739C-128.3 318.739 -213.943 230.283 -213.943 122.784C-213.943 94.5269 -208.438 66.8842 -196.815 41.0845C-218.225 75.4842 -229.237 115.412 -229.237 156.569C-229.237 273.283 -136.253 369.11 -22.4697 369.11C91.3133 369.11 184.297 273.283 184.297 156.569C184.297 113.57 171.451 71.1842 146.981 36.1702Z" fill="#F9F9F9"/>
<path d="M-21.8579 301.539C12.3993 301.539 46.6565 291.097 74.7964 271.44C52.7739 281.882 29.5279 287.411 5.67021 287.411C-83.6433 287.411 -155.216 213.083 -155.216 122.17C-155.216 30.6417 -83.0316 -43.072 5.67021 -43.072C27.6927 -43.072 50.327 -38.1578 69.9025 -29.5578C42.3744 -47.372 10.5641 -56.5862 -22.4697 -56.5862C-118.512 -56.5862 -196.815 23.8846 -196.815 122.784C-196.203 221.069 -117.901 301.539 -21.8579 301.539Z" fill="#F9F9F9"/>
<path d="M102.936 225.369C124.347 203.869 139.029 175.612 143.923 145.512C151.875 93.9126 129.853 39.2416 88.8663 7.29901C66.2321 -10.5151 38.0922 -20.9579 9.34061 -22.1865C-29.8105 -24.0293 -68.9616 -8.67229 -97.1015 18.9703C-125.241 46.613 -140.535 85.927 -140.535 125.241C-140.535 171.312 -119.124 218.612 -80.5846 243.797C-43.2687 268.368 6.28192 275.125 48.4917 259.768C69.9025 252.397 88.2546 240.726 102.936 225.369ZM-63.456 44.1559C-67.1264 53.3701 -72.0203 65.0414 -73.8555 74.8699C-74.4673 77.9413 -75.6907 81.0127 -75.6907 81.0127C-75.6907 81.0127 -76.3025 81.0127 -76.9142 81.0127C-81.8081 80.3984 -98.325 77.9413 -103.219 76.7127C-105.666 76.0985 -108.725 75.4842 -109.336 75.4842C-110.56 75.4842 -111.171 75.4842 -111.171 74.8699C-111.783 73.6413 -105.666 62.5843 -99.5485 54.5986C-88.5372 39.2416 -75.079 28.1846 -58.5621 18.9703C-53.6682 16.5132 -45.7157 12.2133 -45.7157 12.8275C-45.7157 12.8275 -45.7157 13.4418 -46.3274 14.0561C-53.0565 24.4989 -58.5621 33.7131 -63.456 44.1559ZM-61.6208 100.67C-61.6208 100.67 -57.3387 100.67 -52.4448 101.284C-42.0452 102.513 -24.9166 103.127 -17.5758 103.127C-13.9054 103.127 -12.0702 103.127 -12.0702 103.741C-11.4584 104.355 -11.4584 164.555 -12.0702 164.555C-12.6819 164.555 -19.411 164.555 -27.9753 164.555C-35.9279 164.555 -45.1039 165.169 -48.7743 165.169C-51.833 165.169 -55.5034 165.169 -57.3387 165.169C-61.0091 165.783 -61.0091 165.783 -61.6208 160.869C-63.456 145.512 -64.0677 132.612 -63.456 119.712C-62.2325 109.884 -62.2326 101.284 -61.6208 100.67ZM72.9612 101.284C72.9612 100.055 72.9612 99.4411 72.9612 98.2126C86.4194 96.984 99.2659 94.5269 112.112 90.8412C119.453 117.87 118.23 147.355 109.054 174.383C100.489 172.541 92.5368 170.698 83.9724 168.855C79.6903 167.626 71.7377 166.398 71.7377 166.398C71.7377 166.398 72.3494 160.869 72.3494 159.641C72.3494 157.184 72.9612 154.726 72.9612 152.269C74.1847 135.069 74.1847 118.484 72.9612 101.284ZM82.1372 42.9273C91.3133 52.1415 98.6541 63.1986 104.771 74.2556C104.771 74.2556 104.771 74.2556 104.771 74.8699C102.936 76.0984 88.2546 79.1699 79.0786 80.3984C69.9025 81.627 70.5143 81.627 70.5143 79.1699C69.9025 76.0985 67.4556 65.6557 66.2321 61.3557C61.3382 45.3844 56.4443 33.0988 49.1035 22.0418C47.88 20.1989 47.2683 18.3561 46.6565 17.7418C59.503 23.8846 71.7377 32.4845 82.1372 42.9273ZM52.1621 82.2413C51.5504 82.8556 45.4331 83.4698 35.0335 84.0841C24.634 84.6984 6.28193 85.3127 6.89366 84.6984C6.28193 84.0841 6.28194 66.8843 6.28194 45.3844V6.68474H6.89366C8.11714 6.68474 13.011 9.14186 16.0697 11.599C30.1396 21.4275 42.9861 43.5416 50.327 72.4128C52.1622 79.1699 52.7739 81.627 52.1621 82.2413ZM5.05844 132.612C5.05844 122.784 5.05844 112.341 5.05844 102.513C20.9636 102.513 36.8687 101.898 52.1621 100.67C52.7739 100.67 53.9974 100.67 54.6091 101.284C55.2209 101.898 55.2208 102.513 55.2208 103.127C57.0561 119.712 57.0561 136.298 55.2208 152.884C54.6091 156.569 54.6091 160.255 53.3856 163.326C53.3856 163.941 53.3856 163.941 52.7739 164.555C52.1621 164.555 52.1622 164.555 51.5504 164.555C37.4805 163.941 23.4105 163.941 9.34061 163.326C8.11713 163.326 3.83497 163.326 3.83497 163.326C3.83497 163.326 3.83497 157.798 3.83497 156.569C5.05844 148.584 5.05844 140.598 5.05844 132.612ZM67.4556 187.898L68.0673 185.44H71.126C77.2433 185.44 99.8776 189.74 100.489 190.969C101.101 191.583 98.6541 194.655 94.9837 200.183C90.7015 206.326 87.6429 210.012 82.1372 215.54C72.9612 225.369 61.9499 233.354 50.9387 239.497C46.0448 241.954 45.4331 242.569 45.4331 241.954C45.4331 241.954 46.6565 239.497 47.88 237.654C55.8326 224.754 62.5617 208.169 67.4556 187.898ZM-114.23 173.155C-114.23 173.155 -116.065 170.083 -116.677 166.398C-122.183 148.584 -123.406 128.312 -120.959 110.498C-119.124 100.67 -117.901 93.2983 -116.677 92.684C-116.065 92.0698 -114.23 92.684 -111.783 93.2983C-105.054 95.1412 -93.4311 96.3697 -82.4199 98.2126C-80.5846 98.2126 -78.1377 98.8268 -78.1377 98.8268C-78.1377 98.8268 -78.1377 102.513 -78.7494 106.812C-79.9729 113.57 -79.9729 117.255 -79.9729 128.927C-79.9729 144.284 -79.3612 149.812 -78.1377 160.255C-78.1377 162.712 -77.526 164.555 -77.526 165.783V167.626L-79.9729 168.241C-89.7607 169.469 -100.772 170.698 -108.724 172.541C-111.783 173.155 -114.23 173.155 -114.23 173.155ZM-45.1039 244.411C-46.3274 244.411 -52.4448 241.954 -56.7269 239.497C-76.3025 229.054 -92.2076 214.312 -103.831 195.269C-106.278 190.969 -106.889 190.355 -105.666 189.74C-103.831 188.512 -79.3612 184.826 -75.079 184.826H-72.6321L-71.4086 189.126C-68.3499 200.797 -65.2912 208.783 -60.3973 218.612C-56.1152 227.212 -53.0565 233.354 -48.1626 239.497C-46.9391 241.34 -45.7157 243.183 -45.1039 244.411C-44.4922 244.411 -44.4922 244.411 -45.1039 244.411ZM-11.4584 250.554C-13.2936 251.168 -20.0227 246.868 -24.3049 243.183C-33.4809 235.811 -42.0452 222.297 -48.7743 206.94C-52.4448 198.34 -56.7269 184.212 -56.1152 183.598C-55.5035 182.983 -42.0453 182.369 -26.7519 181.755C-15.1289 181.14 -12.6819 181.14 -12.0702 181.755C-11.4584 182.369 -11.4584 186.055 -11.4584 216.154C-11.4584 244.411 -11.4584 249.94 -11.4584 250.554ZM-18.7992 85.3127C-30.4222 85.3127 -57.9504 83.4698 -57.9504 82.8555C-58.5621 82.2413 -56.1152 71.1842 -53.0565 63.1986C-45.1039 38.6273 -33.481 20.8132 -20.6345 11.599C-16.3523 9.14186 -12.0702 7.29901 -11.4584 7.91329C-10.8467 7.91329 -10.8467 19.5846 -10.8467 46.613V85.3127H-18.7992ZM8.72888 250.554C7.50541 251.168 6.28193 251.783 5.67019 251.783C5.05845 251.783 5.05844 246.254 5.05844 217.383C5.05844 184.826 5.05845 182.369 5.67019 182.369C6.89366 181.755 33.1983 182.983 42.3744 183.598C46.0448 184.212 49.7152 184.826 49.7152 184.826C50.3269 185.44 46.6565 198.34 43.5978 206.326C35.0335 228.44 22.1871 245.026 8.72888 250.554Z" fill="#F9F9F9"/>
<path d="M590.922 36.1702C604.38 63.1986 610.498 92.684 610.498 123.398C610.498 230.897 525.466 318.739 420.248 318.739C315.641 318.739 229.998 230.283 229.998 122.784C229.998 94.5269 235.503 66.8842 247.126 41.0845C225.715 75.4842 214.704 115.412 214.704 156.569C214.704 273.283 307.688 369.11 421.471 369.11C535.254 369.11 628.238 273.283 628.238 156.569C628.238 113.57 615.391 71.1842 590.922 36.1702Z" fill="#F9F9F9"/>
<path d="M422.083 301.539C456.34 301.539 490.597 291.097 518.737 271.44C496.715 281.882 473.469 287.411 449.611 287.411C360.297 287.411 288.724 213.083 288.724 122.17C288.724 30.6417 360.909 -43.072 449.611 -43.072C471.633 -43.072 494.268 -38.1578 513.843 -29.5578C486.315 -47.372 454.505 -56.5862 421.471 -56.5862C325.428 -56.5862 247.126 23.8846 247.126 122.784C247.738 221.069 326.04 301.539 422.083 301.539Z" fill="#F9F9F9"/>
<path d="M546.877 225.369C568.288 203.869 582.969 175.612 587.863 145.512C595.816 93.9126 573.793 39.2416 532.807 7.29901C510.173 -10.5151 482.033 -20.9579 453.281 -22.1865C414.13 -24.0293 374.979 -8.67229 346.839 18.9703C318.699 46.613 303.406 85.927 303.406 125.241C303.406 171.312 324.817 218.612 363.356 243.797C400.672 268.368 450.223 275.125 492.432 259.768C513.843 252.397 532.195 240.726 546.877 225.369ZM380.485 44.1559C376.814 53.3701 371.92 65.0414 370.085 74.8699C369.473 77.9413 368.25 81.0127 368.25 81.0127C368.25 81.0127 367.638 81.0127 367.026 81.0127C362.133 80.3984 345.616 77.9413 340.722 76.7127C338.275 76.0985 335.216 75.4842 334.604 75.4842C333.381 75.4842 332.769 75.4842 332.769 74.8699C332.157 73.6413 338.275 62.5843 344.392 54.5986C355.403 39.2416 368.862 28.1846 385.379 18.9703C390.272 16.5132 398.225 12.2133 398.225 12.8275C398.225 12.8275 398.225 13.4418 397.613 14.0561C390.884 24.4989 385.379 33.7131 380.485 44.1559ZM382.32 100.67C382.32 100.67 386.602 100.67 391.496 101.284C401.895 102.513 419.024 103.127 426.365 103.127C430.035 103.127 431.871 103.127 431.871 103.741C432.482 104.355 432.482 164.555 431.871 164.555C431.259 164.555 424.53 164.555 415.965 164.555C408.013 164.555 398.837 165.169 395.166 165.169C392.108 165.169 388.437 165.169 386.602 165.169C382.932 165.783 382.932 165.783 382.32 160.869C380.485 145.512 379.873 132.612 380.485 119.712C381.708 109.884 381.708 101.284 382.32 100.67ZM516.902 101.284C516.902 100.055 516.902 99.4411 516.902 98.2126C530.36 96.984 543.207 94.5269 556.053 90.8412C563.394 117.87 562.17 147.355 552.994 174.383C544.43 172.541 536.477 170.698 527.913 168.855C523.631 167.626 515.678 166.398 515.678 166.398C515.678 166.398 516.29 160.869 516.29 159.641C516.29 157.184 516.902 154.726 516.902 152.269C518.125 135.069 518.125 118.484 516.902 101.284ZM526.078 42.9273C535.254 52.1415 542.595 63.1986 548.712 74.2556C548.712 74.2556 548.712 74.2556 548.712 74.8699C546.877 76.0984 532.195 79.1699 523.019 80.3984C513.843 81.627 514.455 81.627 514.455 79.1699C513.843 76.0985 511.396 65.6557 510.173 61.3557C505.279 45.3844 500.385 33.0988 493.044 22.0418C491.821 20.1989 491.209 18.3561 490.597 17.7418C503.444 23.8846 515.678 32.4845 526.078 42.9273ZM496.103 82.2413C495.491 82.8556 489.374 83.4698 478.974 84.0841C468.575 84.6984 450.223 85.3127 450.834 84.6984C450.223 84.0841 450.223 66.8843 450.223 45.3844V6.68474H450.834C452.058 6.68474 456.952 9.14186 460.01 11.599C474.08 21.4275 486.927 43.5416 494.268 72.4128C496.103 79.1699 496.715 81.627 496.103 82.2413ZM448.999 132.612C448.999 122.784 448.999 112.341 448.999 102.513C464.904 102.513 480.809 101.898 496.103 100.67C496.715 100.67 497.938 100.67 498.55 101.284C499.162 101.898 499.162 102.513 499.162 103.127C500.997 119.712 500.997 136.298 499.162 152.884C498.55 156.569 498.55 160.255 497.326 163.326C497.326 163.941 497.326 163.941 496.715 164.555C496.103 164.555 496.103 164.555 495.491 164.555C481.421 163.941 467.351 163.941 453.281 163.326C452.058 163.326 447.776 163.326 447.776 163.326C447.776 163.326 447.776 157.798 447.776 156.569C448.999 148.584 448.999 140.598 448.999 132.612ZM511.396 187.898L512.008 185.44H515.067C521.184 185.44 543.818 189.74 544.43 190.969C545.042 191.583 542.595 194.655 538.924 200.183C534.642 206.326 531.584 210.012 526.078 215.54C516.902 225.369 505.891 233.354 494.879 239.497C489.985 241.954 489.374 242.569 489.374 241.954C489.374 241.954 490.597 239.497 491.821 237.654C499.773 224.754 506.502 208.169 511.396 187.898ZM329.711 173.155C329.711 173.155 327.875 170.083 327.264 166.398C321.758 148.584 320.534 128.312 322.981 110.498C324.817 100.67 326.04 93.2983 327.264 92.684C327.875 92.0698 329.711 92.684 332.157 93.2983C338.887 95.1412 350.51 96.3697 361.521 98.2126C363.356 98.2126 365.803 98.8268 365.803 98.8268C365.803 98.8268 365.803 102.513 365.191 106.812C363.968 113.57 363.968 117.255 363.968 128.927C363.968 144.284 364.58 149.812 365.803 160.255C365.803 162.712 366.415 164.555 366.415 165.783V167.626L363.968 168.241C354.18 169.469 343.169 170.698 335.216 172.541C332.157 173.155 329.711 173.155 329.711 173.155ZM398.837 244.411C397.613 244.411 391.496 241.954 387.214 239.497C367.638 229.054 351.733 214.312 340.11 195.269C337.663 190.969 337.051 190.355 338.275 189.74C340.11 188.512 364.58 184.826 368.862 184.826H371.309L372.532 189.126C375.591 200.797 378.649 208.783 383.543 218.612C387.825 227.212 390.884 233.354 395.778 239.497C397.002 241.34 398.225 243.183 398.837 244.411C399.448 244.411 399.448 244.411 398.837 244.411ZM432.482 250.554C430.647 251.168 423.918 246.868 419.636 243.183C410.46 235.811 401.895 222.297 395.166 206.94C391.496 198.34 387.214 184.212 387.825 183.598C388.437 182.983 401.895 182.369 417.189 181.755C428.812 181.14 431.259 181.14 431.871 181.755C432.482 182.369 432.482 186.055 432.482 216.154C432.482 244.411 432.482 249.94 432.482 250.554ZM425.141 85.3127C413.518 85.3127 385.99 83.4698 385.99 82.8555C385.379 82.2413 387.825 71.1842 390.884 63.1986C398.837 38.6273 410.46 20.8132 423.306 11.599C427.588 9.14186 431.87 7.29901 432.482 7.91329C433.094 7.91329 433.094 19.5846 433.094 46.613V85.3127H425.141ZM452.67 250.554C451.446 251.168 450.223 251.783 449.611 251.783C448.999 251.783 448.999 246.254 448.999 217.383C448.999 184.826 448.999 182.369 449.611 182.369C450.834 181.755 477.139 182.983 486.315 183.598C489.985 184.212 493.656 184.826 493.656 184.826C494.268 185.44 490.597 198.34 487.539 206.326C478.974 228.44 466.128 245.026 452.67 250.554Z" fill="#F9F9F9"/>
</g>
<defs>
<clipPath id="clip0_623_5949">
<rect width="416" height="340" fill="white"/>
</clipPath>
</defs>
</svg>
