<svg width="12" height="12" viewBox="0 0 12 12" fill="none" xmlns="http://www.w3.org/2000/svg">
<path fill-rule="evenodd" clip-rule="evenodd" d="M8.1875 1.67803L1.84375 8.02178V10.1562H3.97818L10.3219 3.81245L8.1875 1.67803ZM7.76508 0.359769C7.89887 0.303751 8.04246 0.274902 8.1875 0.274902C8.33255 0.274902 8.47614 0.303751 8.60993 0.359769C8.74279 0.415399 8.86335 0.496721 8.96468 0.599056L11.401 3.03533C11.5033 3.13665 11.5846 3.25719 11.6402 3.39003C11.6962 3.52381 11.7251 3.66741 11.7251 3.81245C11.7251 3.9575 11.6962 4.10109 11.6402 4.23488C11.5846 4.36772 11.5033 4.48827 11.4009 4.5896L4.71404 11.2765C4.59097 11.3996 4.42405 11.4687 4.25 11.4687H1.625C1.33492 11.4687 1.05672 11.3535 0.851605 11.1483C0.646487 10.9432 0.531253 10.665 0.531253 10.375V7.93132C0.530937 7.78869 0.558659 7.64739 0.61285 7.51545C0.667218 7.38307 0.747159 7.26272 0.848098 7.16128L0.849245 7.16013L7.41036 0.599017C7.51169 0.4967 7.63223 0.415392 7.76508 0.359769Z" fill="#474747"/>
<path fill-rule="evenodd" clip-rule="evenodd" d="M5.97346 2.03591C6.22975 1.77963 6.64526 1.77963 6.90154 2.03591L9.96404 5.09841C10.2203 5.35469 10.2203 5.77021 9.96404 6.02649C9.70776 6.28277 9.29225 6.28277 9.03596 6.02649L5.97346 2.96399C5.71718 2.70771 5.71718 2.29219 5.97346 2.03591Z" fill="#474747"/>
<path fill-rule="evenodd" clip-rule="evenodd" d="M3.59375 10.8125C3.59375 10.45 3.88757 10.1562 4.25 10.1562H10.8125C11.1749 10.1562 11.4688 10.45 11.4688 10.8125C11.4688 11.1749 11.1749 11.4687 10.8125 11.4687H4.25C3.88757 11.4687 3.59375 11.1749 3.59375 10.8125Z" fill="#474747"/>
</svg>
