<svg width="323" height="71" viewBox="0 0 323 71" fill="none" xmlns="http://www.w3.org/2000/svg">
<path d="M86.9771 24.3668V24.7428L86.0576 25.3069C85.9656 25.4009 85.8737 25.4949 85.8737 25.6829V26.435C85.8737 26.717 86.0576 26.905 86.3334 26.905H90.9311C91.207 26.905 91.3909 26.717 91.3909 26.435V25.6829C91.3909 25.4949 91.2989 25.4009 91.207 25.3069L90.2874 24.7428V24.3668C93.8736 24.2727 95.7127 22.4866 95.7127 19.1962V15.3418C95.7127 12.1455 93.7816 10.2653 90.2874 10.0772V9.7952L91.023 9.32515C91.115 9.23114 91.207 9.13713 91.207 8.94911V8.19703C91.207 7.915 91.023 7.72698 90.7472 7.72698H86.4254C86.1495 7.72698 85.9656 7.915 85.9656 8.19703V8.94911C85.9656 9.13713 86.0576 9.23114 86.1495 9.32515L86.8851 9.7952V10.0772C83.3909 10.2653 81.4599 12.1455 81.4599 15.3418V19.1962C81.5519 22.4866 83.3909 24.2727 86.9771 24.3668ZM84.9541 19.1962V15.3418C84.9541 14.3077 85.23 12.7095 86.8851 12.5215V21.9225C85.3219 21.7345 84.9541 20.4183 84.9541 19.1962ZM90.1955 21.9225V12.5215C91.4828 12.7095 92.1265 13.6496 92.1265 15.3418V19.1962C92.2184 20.4183 91.8506 21.7345 90.1955 21.9225Z" fill="#424143"/>
<path d="M103.161 27.0928C106.471 27.0928 108.678 25.0246 108.678 21.8283V12.8033C108.678 9.60698 106.563 7.53876 103.161 7.53876C99.8505 7.53876 97.6436 9.70099 97.6436 12.8033V21.8283C97.6436 24.9306 99.8505 27.0928 103.161 27.0928ZM105.184 21.8283C105.184 22.4864 105 24.4606 103.161 24.4606C102.241 24.4606 101.138 24.1785 101.138 21.8283V12.8033C101.138 10.4531 102.241 10.171 103.161 10.171C105.092 10.171 105.184 12.2393 105.184 12.8033V21.8283Z" fill="#424143"/>
<path d="M110.885 26.811H115.667C115.943 26.811 116.127 26.623 116.127 26.341V25.5889C116.127 25.4009 116.035 25.3069 115.943 25.2129L115.023 24.7428V18.3501H118.242V24.7428L117.322 25.2129C117.23 25.3069 117.138 25.4009 117.138 25.5889V26.341C117.138 26.623 117.322 26.811 117.598 26.811H122.379C122.655 26.811 122.839 26.623 122.839 26.341V25.5889C122.839 25.4009 122.747 25.3069 122.655 25.2129L121.736 24.7428V9.88921L122.471 9.32515C122.563 9.23114 122.655 9.13713 122.655 8.94911V8.19703C122.655 7.915 122.471 7.72698 122.196 7.72698H117.69C117.414 7.72698 117.23 7.915 117.23 8.19703V8.94911C117.23 9.13713 117.322 9.23114 117.414 9.32515L118.15 9.88921V15.9059H114.931V9.88921L115.667 9.32515C115.759 9.23114 115.851 9.13713 115.851 8.94911V8.19703C115.851 7.915 115.667 7.72698 115.391 7.72698H110.885C110.609 7.72698 110.426 7.915 110.426 8.19703V8.94911C110.426 9.13713 110.518 9.23114 110.609 9.32515L111.345 9.88921V24.7428L110.426 25.2129C110.242 25.3069 110.242 25.4009 110.242 25.5889V26.341C110.426 26.623 110.609 26.811 110.885 26.811Z" fill="#424143"/>
<path d="M123.482 29.443H124.77C124.953 29.443 125.137 29.349 125.137 29.161L125.781 26.8107H134.057L134.701 29.161C134.792 29.349 134.884 29.443 135.068 29.443H136.356C136.448 29.443 136.54 29.349 136.632 29.349C136.724 29.255 136.724 29.161 136.724 29.0669L136.54 24.8365C136.54 24.6485 136.356 24.4605 136.08 24.4605H134.976V10.0769L135.712 9.51286C135.804 9.41885 135.896 9.32484 135.896 9.13682V8.38474C135.896 8.10271 135.712 7.91469 135.436 7.91469H125.597C125.321 7.91469 125.137 8.10271 125.137 8.38474V9.13682C125.137 9.32484 125.229 9.41885 125.321 9.51286L126.149 10.0769L124.77 23.1443C124.678 24.3664 124.218 24.4605 123.666 24.4605C123.574 24.4605 123.39 24.4605 123.206 24.4605C123.114 24.4605 122.931 24.4605 122.839 24.5545C122.747 24.6485 122.655 24.7425 122.655 24.8365L122.471 29.0669C122.471 29.161 122.471 29.255 122.563 29.349C123.298 29.443 123.39 29.443 123.482 29.443ZM131.85 24.2724H127.712C127.988 23.8024 127.988 23.3323 128.08 22.7683L129.275 10.1709H131.85V24.2724Z" fill="#424143"/>
<path d="M150.929 14.4353H153.596C153.872 14.4353 154.056 14.2473 154.056 13.9653V8.88871C154.056 8.60668 153.872 8.41866 153.596 8.41866H151.849C151.665 8.41866 151.481 8.60668 151.389 8.7947L151.297 9.07673C150.562 8.51267 149.642 8.32465 148.539 8.32465C145.228 8.32465 143.297 10.2989 143.297 13.5892V22.5202C143.297 25.7165 145.412 27.7847 148.723 27.7847C152.125 27.7847 154.148 25.9045 154.148 22.7082V21.7681C154.148 21.4861 153.964 21.298 153.688 21.298H151.021C150.746 21.298 150.562 21.4861 150.562 21.7681V22.7082C150.562 24.4944 150.01 25.1524 148.631 25.1524C147.711 25.1524 146.7 24.8704 146.7 22.5202V13.5892C146.7 11.897 147.343 10.9569 148.539 10.9569C149.826 10.9569 150.378 11.709 150.378 13.4952V13.9653C150.562 14.2473 150.746 14.4353 150.929 14.4353Z" fill="#424143"/>
<path d="M163.527 11.0501L164.262 13.6824C164.354 13.8704 164.446 13.9644 164.63 13.9644H165.826C166.101 13.9644 166.285 13.7764 166.285 13.4943C166.285 13.4003 166.285 13.4003 166.285 13.3063L166.193 8.88784C166.193 8.60581 166.01 8.41779 165.734 8.41779H155.435C155.159 8.41779 154.975 8.60581 154.975 8.88784L154.883 13.4943C154.883 13.5883 154.883 13.6824 154.975 13.7764C155.067 13.8704 155.159 13.8704 155.251 13.8704H156.446C156.63 13.8704 156.814 13.7764 156.814 13.5883L157.55 10.9561H158.653V25.0576L157.734 25.7156C157.642 25.8097 157.55 25.9037 157.55 26.0917V26.9378C157.55 27.2198 157.734 27.4078 158.01 27.4078H162.883C163.159 27.4078 163.343 27.2198 163.343 26.9378V26.0917C163.343 25.9037 163.251 25.8097 163.159 25.7156L162.239 25.0576V10.9561L163.527 11.0501Z" fill="#424143"/>
<path d="M172.814 20.9213C176.4 20.9213 178.24 19.4172 178.24 16.4088V13.2125C178.24 10.2042 176.308 8.60601 172.814 8.60601H167.757C167.481 8.60601 167.297 8.79403 167.297 9.07606V9.82814C167.297 10.0162 167.389 10.1102 167.481 10.2042L168.217 10.7682V25.4338L167.297 26.0919C167.205 26.1859 167.113 26.2799 167.113 26.4679V27.22C167.113 27.502 167.297 27.6901 167.573 27.6901H172.354C172.63 27.6901 172.814 27.502 172.814 27.22V26.4679C172.814 26.2799 172.722 26.1859 172.63 26.0919L171.711 25.4338V20.9213H172.814ZM174.745 16.4088C174.745 17.913 174.194 18.5711 172.814 18.5711H171.619V11.0503H172.814C174.194 11.0503 174.745 11.6143 174.745 13.2125V16.4088Z" fill="#424143"/>
<path d="M185.779 26.4677V27.1258C185.779 27.4078 185.963 27.5958 186.239 27.5958H190.56C190.836 27.5958 191.02 27.4078 191.02 27.1258V26.2797C191.02 26.0917 190.928 25.9977 190.836 25.9037L190.101 25.4336L186.055 8.79383C185.963 8.60581 185.871 8.41779 185.595 8.41779H183.02C182.836 8.41779 182.652 8.5118 182.56 8.79383C181.825 11.9902 180.997 15.5626 180.17 19.0409C179.618 21.2972 179.158 23.4594 178.698 25.5276L177.963 25.9037C177.779 25.9977 177.779 26.0917 177.779 26.2797V27.1258C177.779 27.4078 177.963 27.5958 178.239 27.5958H181.641C181.917 27.5958 182.101 27.4078 182.101 27.1258V26.2797C182.101 26.0917 182.009 25.9977 181.825 25.9037L181.273 25.6216L181.917 22.7073H185.871L186.606 25.7156L186.147 26.0917C185.779 26.1857 185.779 26.2797 185.779 26.4677ZM185.135 20.3571H182.285L183.756 13.9644L185.135 20.3571Z" fill="#424143"/>
<path d="M189.826 8.98185L189.734 13.5883C189.734 13.6824 189.734 13.7764 189.826 13.8704C189.918 13.9644 190.01 13.9644 190.101 13.9644H191.297C191.481 13.9644 191.665 13.8704 191.665 13.6824L192.4 11.0501H193.504V25.1516L192.584 25.8096C192.492 25.9037 192.4 25.9977 192.4 26.1857V27.0318C192.4 27.3138 192.584 27.5018 192.86 27.5018H197.734C198.009 27.5018 198.193 27.3138 198.193 27.0318V26.1857C198.193 25.9977 198.101 25.9037 198.009 25.8096L197.09 25.1516V11.0501H198.193L198.929 13.6824C199.021 13.8704 199.113 13.9644 199.297 13.9644H200.492C200.768 13.9644 200.952 13.7764 200.952 13.4943C200.952 13.4003 200.952 13.4003 200.952 13.3063L200.86 8.88784C200.86 8.60581 200.676 8.41779 200.4 8.41779H190.101C190.101 8.60581 189.826 8.79383 189.826 8.98185Z" fill="#424143"/>
<path d="M202.331 27.5018H211.802C212.078 27.5018 212.262 27.3138 212.262 27.0318V22.9893C212.262 22.7073 212.078 22.5193 211.802 22.5193H210.698C210.515 22.5193 210.331 22.6133 210.331 22.8013L209.595 24.9636H206.469C206.561 24.7755 206.561 24.5875 206.561 24.4935V19.2289H208.308L208.859 20.3571C208.951 20.5451 209.043 20.6391 209.227 20.6391H209.963C210.239 20.6391 210.423 20.4511 210.423 20.169V15.8446C210.423 15.5626 210.239 15.3745 209.963 15.3745H209.135C208.951 15.3745 208.859 15.4685 208.767 15.6566L208.216 16.7847H206.469V10.8621H209.135L209.779 13.1183C209.871 13.3063 209.963 13.4003 210.147 13.4003H211.434C211.71 13.4003 211.894 13.2123 211.894 12.9303V8.88784C211.894 8.60581 211.71 8.41779 211.434 8.41779H202.423C202.147 8.41779 201.963 8.60581 201.963 8.88784V9.54591C201.963 9.73393 202.055 9.82794 202.147 9.92195L202.882 10.486V25.2456L201.963 25.9037C201.871 25.9977 201.779 26.0917 201.779 26.2797V27.0318C201.871 27.3138 202.147 27.5018 202.331 27.5018Z" fill="#424143"/>
<path d="M213.917 27.5018H218.699C218.975 27.5018 219.159 27.3138 219.159 27.0318V26.2797C219.159 26.0917 219.067 25.9977 218.975 25.9037L218.055 25.2456V10.8621H220.906L221.55 13.4003C221.641 13.5883 221.733 13.6824 221.917 13.6824H223.113C223.389 13.6824 223.572 13.4943 223.572 13.2123V8.88784C223.572 8.60581 223.389 8.41779 223.113 8.41779H214.101C213.825 8.41779 213.642 8.60581 213.642 8.88784V9.63992C213.642 9.73393 213.734 9.92195 213.825 10.016L214.653 10.674V25.2456L213.734 25.9037C213.642 25.9977 213.55 26.0917 213.55 26.2797V27.0318C213.458 27.3138 213.734 27.5018 213.917 27.5018Z" fill="#424143"/>
<path d="M224.768 27.5018H229.549C229.825 27.5018 230.009 27.3138 230.009 27.0318V26.2797C230.009 26.0917 229.917 25.9977 229.825 25.9037L228.997 25.3396L231.94 17.3487L232.216 16.5027C232.216 17.5368 232.216 18.5709 232.216 19.605C232.216 21.4852 232.216 23.4594 232.216 25.2456L231.296 25.9037C231.204 25.9977 231.112 26.0917 231.112 26.2797V27.0318C231.112 27.3138 231.296 27.5018 231.572 27.5018H236.354C236.63 27.5018 236.814 27.3138 236.814 27.0318V26.2797C236.814 26.0917 236.722 25.9977 236.63 25.9037L235.71 25.2456V10.58L236.446 10.016C236.538 9.92195 236.63 9.82794 236.63 9.63992V8.88784C236.63 8.60581 236.446 8.41779 236.17 8.41779H231.756C231.48 8.41779 231.296 8.60581 231.296 8.88784V9.63992C231.296 9.73393 231.388 9.92195 231.48 10.016L232.124 10.58L228.997 18.9469L228.814 19.605V10.58L229.549 10.016C229.641 9.92195 229.733 9.82794 229.733 9.63992V8.88784C229.733 8.60581 229.549 8.41779 229.273 8.41779H224.952C224.676 8.41779 224.492 8.60581 224.492 8.88784V9.63992C224.492 9.82794 224.584 9.92195 224.676 10.016L225.411 10.58V25.2456L224.492 25.9037C224.4 25.9977 224.308 26.0917 224.308 26.2797V27.0318C224.308 27.3138 224.492 27.5018 224.768 27.5018Z" fill="#424143"/>
<path d="M248.675 25.3396V10.674L249.411 10.11C249.503 10.016 249.595 9.92195 249.595 9.73393V8.98185C249.595 8.69982 249.411 8.5118 249.135 8.5118H244.629C244.354 8.5118 244.17 8.69982 244.17 8.98185V9.73393C244.17 9.92195 244.262 10.016 244.354 10.11L245.089 10.674V17.6308H243.986C242.147 17.6308 241.871 15.6566 241.871 14.4344V10.674L242.79 10.016C242.882 9.92195 242.974 9.82794 242.974 9.63992V8.88784C242.974 8.60581 242.79 8.41779 242.514 8.41779H237.641C237.365 8.41779 237.181 8.60581 237.181 8.88784V9.63992C237.181 9.82794 237.273 9.92195 237.365 10.016L238.285 10.674V14.4344C238.285 17.9128 240.491 20.2631 243.894 20.2631H245.089V25.3396L244.17 25.9977C244.078 26.0917 243.986 26.1857 243.986 26.3737V27.1258C243.986 27.4078 244.17 27.5958 244.445 27.5958H249.227C249.503 27.5958 249.687 27.4078 249.687 27.1258V26.3737C249.687 26.1857 249.595 26.0917 249.503 25.9977L248.675 25.3396Z" fill="#424143"/>
<path d="M261.089 22.6139H259.986C259.802 22.6139 259.618 22.7079 259.618 22.8959L258.79 25.0581H255.664C255.756 24.8701 255.756 24.6821 255.756 24.5881V19.3235H257.503L258.055 20.4516C258.147 20.6396 258.239 20.7337 258.423 20.7337H259.158C259.434 20.7337 259.618 20.5456 259.618 20.2636V15.9391C259.618 15.6571 259.434 15.4691 259.158 15.4691H258.423C258.239 15.4691 258.147 15.5631 258.055 15.7511L257.503 16.8792H255.756V10.9566H258.423L259.066 13.2129C259.158 13.4009 259.25 13.4949 259.434 13.4949H260.721C260.997 13.4949 261.181 13.3069 261.181 13.0248V8.98241C261.181 8.70038 260.997 8.51236 260.721 8.51236H251.71C251.434 8.51236 251.25 8.70038 251.25 8.98241V9.64047C251.25 9.82849 251.342 9.9225 251.434 10.0165L252.17 10.5806V25.3402L251.25 25.9982C251.158 26.0922 251.066 26.1862 251.066 26.3743V27.1263C251.066 27.4084 251.25 27.5964 251.526 27.5964H260.997C261.273 27.5964 261.457 27.4084 261.457 27.1263V23.0839C261.457 22.8019 261.273 22.6139 261.089 22.6139Z" fill="#424143"/>
<path d="M273.595 21.3912H270.928C270.652 21.3912 270.469 21.5792 270.469 21.8612V22.8013C270.469 24.5875 269.917 25.2456 268.538 25.2456C267.618 25.2456 266.607 24.9636 266.607 22.6133V13.6824C266.607 11.9902 267.25 11.0501 268.446 11.0501C269.733 11.0501 270.285 11.8022 270.285 13.5883V14.0584C270.285 14.3404 270.469 14.5284 270.744 14.5284H273.503C273.779 14.5284 273.963 14.3404 273.963 14.0584V8.98185C273.963 8.69982 273.779 8.5118 273.503 8.5118H271.756C271.572 8.5118 271.388 8.69982 271.296 8.88784L271.204 9.16987C270.469 8.60581 269.549 8.41779 268.446 8.41779C265.135 8.41779 263.204 10.392 263.204 13.6824V22.6133C263.204 25.8097 265.319 27.8779 268.629 27.8779C272.032 27.8779 274.055 25.9977 274.055 22.8013V21.8612C274.055 21.5792 273.871 21.3912 273.595 21.3912Z" fill="#424143"/>
<path d="M287.48 25.5278C287.02 25.6218 286.652 24.9638 286.469 24.3057L285.641 20.5453C285.273 18.7591 284.629 17.537 283.71 17.0669C284.262 16.3148 284.721 14.9047 285.273 13.1185C285.457 12.4604 285.641 11.8024 285.825 11.4263C286.101 10.6742 286.285 10.4862 286.836 10.4862C286.928 10.4862 287.02 10.4862 287.112 10.3922C287.204 10.2982 287.204 10.2042 287.204 10.1102V9.07606C287.204 8.79403 287.02 8.60601 286.744 8.60601H285.825C285.089 8.60601 284.262 8.70002 283.618 9.17007C282.515 10.0162 282.055 11.5203 281.687 13.0245C281.227 14.9047 280.767 16.1268 279.756 16.4088V10.7682L280.492 10.2042C280.584 10.1102 280.675 10.0162 280.675 9.82814V9.07606C280.675 8.79403 280.492 8.60601 280.216 8.60601H275.71C275.434 8.60601 275.25 8.79403 275.25 9.07606V9.82814C275.25 10.0162 275.342 10.1102 275.434 10.2042L276.17 10.7682V25.4338L275.25 26.0919C275.158 26.1859 275.066 26.2799 275.066 26.4679V27.22C275.066 27.502 275.25 27.6901 275.526 27.6901H280.308C280.584 27.6901 280.767 27.502 280.767 27.22V26.4679C280.767 26.2799 280.675 26.1859 280.584 26.0919L279.664 25.4338V18.7591H280.032C281.135 18.7591 281.779 19.5112 282.147 21.2974L282.882 24.8698C283.158 26.1859 283.71 27.7841 285.733 27.7841C286.285 27.7841 287.02 27.6901 287.664 27.408C287.756 27.314 287.848 27.22 287.848 27.032V25.9979C287.848 25.9039 287.756 25.7158 287.664 25.6218C287.756 25.5278 287.664 25.4338 287.48 25.5278Z" fill="#424143"/>
<path d="M294.284 8.32465C290.974 8.32465 288.767 10.4869 288.767 13.5892V22.6142C288.767 25.8105 290.974 27.8787 294.284 27.8787C297.595 27.8787 299.802 25.8105 299.802 22.6142V13.5892C299.802 10.3929 297.595 8.32465 294.284 8.32465ZM292.261 13.5892C292.261 11.239 293.365 10.9569 294.284 10.9569C296.215 10.9569 296.307 13.0251 296.307 13.5892V22.6142C296.307 23.2722 296.123 25.2465 294.284 25.2465C293.365 25.2465 292.261 24.9644 292.261 22.6142V13.5892Z" fill="#424143"/>
<path d="M313.87 25.9982L312.95 25.3402V10.6746L313.686 10.1105C313.778 10.0165 313.87 9.92251 313.87 9.73449V8.98241C313.87 8.70038 313.686 8.51236 313.41 8.51236H308.996C308.721 8.51236 308.537 8.70038 308.537 8.98241V9.73449C308.537 9.8285 308.629 10.0165 308.721 10.1105L309.364 10.6746L306.238 19.0415L306.054 19.6995V10.6746L306.79 10.1105C306.882 10.0165 306.973 9.92251 306.973 9.73449V8.98241C306.973 8.70038 306.79 8.51236 306.514 8.51236H302.1C301.824 8.51236 301.64 8.70038 301.64 8.98241V9.73449C301.64 9.92251 301.732 10.0165 301.824 10.1105L302.56 10.6746V25.3402L301.64 25.9982C301.548 26.0922 301.456 26.1862 301.456 26.3743V27.1263C301.456 27.4084 301.64 27.5964 301.916 27.5964H306.698C306.973 27.5964 307.157 27.4084 307.157 27.1263V26.3743C307.157 26.1862 307.065 26.0922 306.973 25.9982L306.146 25.4342L309.088 17.4433L309.364 16.5972C309.364 17.6313 309.364 18.6654 309.364 19.6995C309.364 21.5798 309.364 23.554 309.364 25.3402L308.445 25.9982C308.353 26.0922 308.261 26.1862 308.261 26.3743V27.1263C308.261 27.4084 308.445 27.5964 308.721 27.5964H313.502C313.778 27.5964 313.962 27.4084 313.962 27.1263V26.3743C314.054 26.2803 313.962 26.0922 313.87 25.9982Z" fill="#424143"/>
<path d="M307.893 7.94842C308.904 7.94842 309.732 7.6664 310.284 7.10233C310.835 6.53827 311.111 5.69218 311.111 4.65807C311.111 4.47005 310.927 4.28203 310.744 4.18802L309.824 4C309.732 4 309.548 4 309.456 4.09401C309.364 4.18802 309.272 4.28203 309.272 4.37604C309.18 4.9401 308.629 5.22213 307.801 5.22213C307.065 5.22213 306.514 4.84609 306.422 4.37604C306.422 4.28203 306.33 4.18802 306.238 4.09401C306.146 4 306.054 4 305.962 4L305.042 4.18802C304.858 4.18802 304.675 4.37604 304.675 4.65807C304.675 5.69218 304.95 6.53827 305.502 7.10233C306.146 7.6664 306.881 7.94842 307.893 7.94842Z" fill="#424143"/>
<path d="M116.77 57.5555V42.7019L117.505 42.1379C117.597 42.0438 117.689 41.9498 117.689 41.7618V41.0097C117.689 40.7277 117.505 40.5397 117.229 40.5397H107.574C107.298 40.5397 107.115 40.7277 107.115 41.0097V41.7618C107.115 41.9498 107.206 42.0438 107.298 42.1379L108.126 42.7959L106.747 56.3334C106.655 57.5555 106.195 57.5555 105.919 57.5555C105.735 57.5555 105.551 57.5555 105.459 57.4615C105.367 57.4615 105.183 57.4615 105.092 57.5555C105 57.6495 104.908 57.7435 104.908 57.8375L104.816 59.0597C104.816 59.2477 104.908 59.4357 105.092 59.5297C105.643 59.7177 106.103 59.8118 106.563 59.8118C107.574 59.8118 109.229 59.4357 109.505 56.6154L110.885 43.078H113.183V57.5555L112.264 58.0256C112.172 58.1196 112.08 58.2136 112.08 58.4016V59.1537C112.08 59.4357 112.264 59.6237 112.54 59.6237H117.321C117.597 59.6237 117.781 59.4357 117.781 59.1537V58.4016C117.965 58.3076 117.873 58.1196 117.689 58.0256L116.77 57.5555Z" fill="#424143"/>
<path d="M92.4022 56.3336C92.5861 56.9917 92.9539 57.6498 93.4137 57.5558C93.5976 57.5558 93.6895 57.5558 93.5976 57.6498C93.6895 57.7438 93.7815 57.9318 93.7815 58.0258V59.0599C93.7815 59.2479 93.6895 59.342 93.5976 59.436C92.9539 59.718 92.2183 59.812 91.6666 59.812C89.6436 59.812 89.0919 58.2138 88.816 56.8977L88.0804 53.3253C87.7126 51.5391 87.0689 50.787 85.9655 50.787H85.5977V57.4618L86.5172 58.1198C86.6091 58.2138 86.7011 58.3078 86.7011 58.4959V59.2479C86.7011 59.53 86.5172 59.718 86.2413 59.718H81.4598C81.1839 59.718 81 59.53 81 59.2479V58.4959C81 58.3078 81.092 58.2138 81.1839 58.1198L82.1034 57.4618V42.7962L81.3678 42.2321C81.2759 42.1381 81.1839 42.0441 81.1839 41.8561V41.104C81.1839 40.822 81.3678 40.634 81.6437 40.634H86.1494C86.4252 40.634 86.6091 40.822 86.6091 41.104V41.8561C86.6091 42.0441 86.5172 42.1381 86.4252 42.2321L85.6896 42.7962V48.4368C86.7011 48.1548 87.1609 46.9326 87.6206 45.0524C87.9884 43.5483 88.4482 42.0441 89.5516 41.198C90.1953 40.728 91.0229 40.634 91.7585 40.634H92.6781C92.9539 40.634 93.1378 40.822 93.1378 41.104V42.1381C93.1378 42.2321 93.1378 42.3261 93.0459 42.4202C92.9539 42.5142 92.862 42.5142 92.77 42.5142C92.2183 42.5142 92.0344 42.7022 91.7585 43.4543C91.5746 43.8303 91.3907 44.4884 91.2068 45.1464C90.6551 46.9326 90.1953 48.3428 89.6436 49.0949C90.5631 49.5649 91.2068 50.787 91.5746 52.5732L92.4022 56.3336Z" fill="#424143"/>
<path d="M106.471 41.8561C106.471 42.0441 106.379 42.1381 106.287 42.2321L105.551 42.6081L100.678 57.3677C100.126 59.0599 99.0227 60 97.4595 60C96.9078 60 96.2641 59.812 95.6205 59.624C95.4365 59.624 95.3446 59.3419 95.3446 59.1539L95.6205 57.9318C95.6205 57.8378 95.7124 57.7438 95.8044 57.6497H96.1722C96.2489 57.6694 96.3217 57.689 96.3913 57.7078C96.6551 57.7789 96.8734 57.8378 97.0917 57.8378C97.4595 57.8378 97.8273 57.6497 98.1951 56.6156L98.9308 54.6414L94.7009 42.7022L93.7814 42.3261C93.5975 42.3261 93.5055 42.1381 93.5055 41.9501V41.198C93.5055 40.916 93.6894 40.7279 93.9653 40.7279H96.54C97.7354 40.7279 98.0112 41.104 98.3791 42.0441L100.77 49.2829L102.885 42.5141L102.333 42.2321C102.149 42.1381 102.057 42.0441 102.057 41.8561V41.198C102.057 40.916 102.241 40.7279 102.517 40.7279H106.011C106.287 40.7279 106.471 40.916 106.471 41.198V41.8561Z" fill="#424143"/>
<path fill-rule="evenodd" clip-rule="evenodd" d="M123.85 47.4967H124.953C128.54 47.4967 130.379 49.0009 130.471 52.1032V55.1115C130.471 58.1198 128.54 59.718 125.045 59.718H119.896C119.62 59.718 119.436 59.53 119.436 59.2479V58.4959C119.436 58.3078 119.528 58.2138 119.62 58.1198L120.356 57.5558V42.8902L119.436 42.2321C119.344 42.1381 119.252 42.0441 119.252 41.8561V41.104C119.252 40.822 119.436 40.634 119.712 40.634H124.494C124.77 40.634 124.953 40.822 124.953 41.104V41.8561C124.953 42.0441 124.862 42.1381 124.77 42.2321L123.85 42.8902V47.4967ZM123.85 57.1797H125.045C126.425 57.1797 126.884 56.5217 126.976 55.0175V52.0092C126.976 50.505 126.425 49.8469 125.045 49.8469H123.85V57.1797Z" fill="#424143"/>
<path d="M153.459 40.634H149.965C149.689 40.634 149.505 40.822 149.505 41.104V41.7621C149.505 41.9501 149.597 42.0441 149.781 42.1381L150.332 42.4202L148.217 49.2829L145.827 42.0441C145.459 41.104 145.183 40.728 143.988 40.728H141.413C141.229 40.728 141.137 40.822 141.045 41.01C140.953 40.822 140.861 40.728 140.677 40.728H130.378C130.103 40.728 129.919 40.916 129.919 41.198L129.827 45.8045C129.827 45.8985 129.827 45.9925 129.919 46.0865C130.011 46.1805 130.103 46.1805 130.195 46.1805H131.39C131.574 46.1805 131.758 46.0865 131.758 45.8985L132.493 43.2662H133.597V57.3677L132.677 58.0258C132.585 58.1198 132.493 58.2138 132.493 58.4019V59.2479C132.493 59.53 132.677 59.718 132.953 59.718H137.827C138.103 59.718 138.286 59.53 138.286 59.2479V58.4019C138.286 58.2139 138.195 58.1198 138.103 58.0258L137.183 57.3677V43.2662H138.286L139.022 45.8985C139.114 46.0865 139.206 46.1805 139.39 46.1805H140.585C140.861 46.1805 141.045 45.9925 141.045 45.7105V45.5225L140.953 42.0514C140.956 42.1041 140.99 42.1257 141.037 42.1551C141.067 42.174 141.102 42.1962 141.137 42.2321L142.057 42.6082L146.286 54.5474L145.551 56.5217C145.183 57.5558 144.815 57.7438 144.447 57.7438C144.229 57.7438 144.011 57.6849 143.747 57.6138C143.677 57.595 143.605 57.5754 143.528 57.5558H143.16C143.068 57.6498 142.976 57.7438 142.976 57.8378L142.7 59.0599C142.7 59.2479 142.792 59.53 142.976 59.53C143.62 59.718 144.263 59.906 144.815 59.906C146.378 59.906 147.482 58.9659 148.033 57.2737L152.907 42.5142L153.643 42.1381C153.735 42.0441 153.827 41.9501 153.827 41.7621V41.104C153.918 40.822 153.735 40.634 153.459 40.634Z" fill="#424143"/>
<path fill-rule="evenodd" clip-rule="evenodd" d="M154.746 40.634H159.896C163.39 40.634 165.321 42.3261 165.229 45.3345V48.5308C165.229 51.5391 163.39 53.0433 159.804 53.0433H158.7V57.4618L159.62 58.1198C159.712 58.2138 159.804 58.3078 159.804 58.4959V59.2479C159.804 59.53 159.62 59.718 159.344 59.718H154.562C154.287 59.718 154.103 59.53 154.103 59.2479V58.4959C154.103 58.3078 154.195 58.2138 154.287 58.1198L155.206 57.4618V42.7962L154.47 42.2321C154.378 42.1381 154.287 42.0441 154.287 41.8561V41.104C154.287 40.822 154.47 40.634 154.746 40.634ZM158.7 50.693H159.896C161.275 50.693 161.827 50.035 161.827 48.5308V45.3345C161.827 43.7363 161.275 43.1722 159.896 43.1722H158.7V50.693Z" fill="#424143"/>
<path d="M182.976 57.4615V42.7019L183.712 42.1379C183.804 42.0438 183.896 41.9498 183.896 41.7618V41.0097C183.896 40.7277 183.712 40.5397 183.436 40.5397H178.93C178.654 40.5397 178.47 40.7277 178.47 41.0097V41.7618C178.47 41.9498 178.562 42.0438 178.654 42.1379L179.39 42.7019V57.3675L178.47 58.0256C178.378 58.1196 178.286 58.2136 178.286 58.4016V59.1537C178.286 59.4357 178.47 59.6237 178.746 59.6237H183.528C183.804 59.6237 183.988 59.4357 183.988 59.1537V58.4016C183.988 58.2136 183.896 58.1196 183.804 58.0256L182.976 57.4615Z" fill="#424143"/>
<path fill-rule="evenodd" clip-rule="evenodd" d="M171.022 47.4967H172.126C175.712 47.4967 177.551 49.0009 177.643 52.1032V55.1115C177.643 58.1198 175.712 59.718 172.218 59.718H167.068C166.792 59.718 166.609 59.53 166.609 59.2479V58.4959C166.609 58.3078 166.701 58.2138 166.792 58.1198L167.528 57.5558V42.8902L166.609 42.2321C166.517 42.1381 166.425 42.0441 166.425 41.8561V41.104C166.425 40.822 166.609 40.634 166.884 40.634H171.666C171.942 40.634 172.126 40.822 172.126 41.104V41.8561C172.126 42.0441 172.034 42.1381 171.942 42.2321L171.022 42.8902V47.4967ZM171.022 57.1797H172.218C173.597 57.1797 174.057 56.5217 174.149 55.0175V52.0092C174.149 50.505 173.597 49.8469 172.218 49.8469H171.022V57.1797Z" fill="#424143"/>
<path d="M61.8639 16.2525C64.0769 20.697 65.0828 25.5455 65.0828 30.596C65.0828 48.2727 51.1006 62.7172 33.7988 62.7172C16.5976 62.7172 2.51479 48.1717 2.51479 30.4949C2.51479 25.8485 3.42012 21.303 5.33136 17.0606C1.81065 22.7172 0 29.2828 0 36.0505C0 55.2424 15.2899 71 34 71C52.7101 71 68 55.2424 68 36.0505C68 28.9798 65.8876 22.0101 61.8639 16.2525Z" fill="#CA4244"/>
<path d="M34.1006 59.8889C39.7337 59.8889 45.3669 58.1717 49.9941 54.9394C46.3728 56.6566 42.5503 57.5657 38.6272 57.5657C23.9408 57.5657 12.1716 45.3434 12.1716 30.3939C12.1716 15.3434 24.0414 3.22222 38.6272 3.22222C42.2485 3.22222 45.9704 4.0303 49.1894 5.44444C44.6627 2.51515 39.432 1 34 1C18.2071 1 5.33136 14.2323 5.33136 30.4949C5.43195 46.6566 18.3077 59.8889 34.1006 59.8889Z" fill="#CA4244"/>
<path d="M54.6213 47.3636C58.142 43.8283 60.5562 39.1818 61.361 34.2323C62.6686 25.7475 59.0473 16.7576 52.3077 11.505C48.5858 8.57576 43.9586 6.85859 39.2308 6.65657C32.7929 6.35354 26.355 8.87879 21.7278 13.4242C17.1006 17.9697 14.5858 24.4343 14.5858 30.899C14.5858 38.4747 18.1065 46.2525 24.4438 50.3939C30.5799 54.4343 38.7278 55.5455 45.6686 53.0202C49.1894 51.8081 52.2071 49.8889 54.6213 47.3636ZM27.2604 17.5657C26.6568 19.0808 25.8521 21 25.5503 22.6162C25.4497 23.1212 25.2485 23.6263 25.2485 23.6263C25.2485 23.6263 25.1479 23.6263 25.0473 23.6263C24.2426 23.5253 21.5266 23.1212 20.7219 22.9192C20.3195 22.8182 19.8166 22.7172 19.716 22.7172C19.5148 22.7172 19.4142 22.7172 19.4142 22.6162C19.3136 22.4141 20.3195 20.596 21.3254 19.2828C23.1361 16.7576 25.3491 14.9394 28.0651 13.4242C28.8698 13.0202 30.1775 12.3131 30.1775 12.4141C30.1775 12.4141 30.1775 12.5152 30.0769 12.6162C28.9704 14.3333 28.0651 15.8485 27.2604 17.5657ZM27.5621 26.8586C27.5621 26.8586 28.2663 26.8586 29.071 26.9596C30.7811 27.1616 33.5976 27.2626 34.8047 27.2626C35.4083 27.2626 35.7101 27.2626 35.7101 27.3636C35.8107 27.4646 35.8107 37.3636 35.7101 37.3636C35.6095 37.3636 34.503 37.3636 33.0947 37.3636C31.787 37.3636 30.2781 37.4646 29.6746 37.4646C29.1716 37.4646 28.568 37.4646 28.2663 37.4646C27.6627 37.5657 27.6627 37.5657 27.5621 36.7576C27.2604 34.2323 27.1598 32.1111 27.2604 29.9899C27.4615 28.3737 27.4615 26.9596 27.5621 26.8586ZM49.6923 26.9596C49.6923 26.7576 49.6923 26.6566 49.6923 26.4545C51.9053 26.2525 54.0178 25.8485 56.1302 25.2424C57.3373 29.6869 57.1361 34.5354 55.6272 38.9798C54.2189 38.6768 52.9112 38.3737 51.503 38.0707C50.7988 37.8687 49.4911 37.6667 49.4911 37.6667C49.4911 37.6667 49.5917 36.7576 49.5917 36.5556C49.5917 36.1515 49.6923 35.7475 49.6923 35.3434C49.8935 32.5152 49.8935 29.7879 49.6923 26.9596ZM51.2012 17.3636C52.7101 18.8788 53.9172 20.697 54.9231 22.5152C54.9231 22.5152 54.9231 22.5152 54.9231 22.6162C54.6213 22.8182 52.2071 23.3232 50.6982 23.5253C49.1894 23.7273 49.2899 23.7273 49.2899 23.3232C49.1894 22.8182 48.787 21.101 48.5858 20.3939C47.7811 17.7677 46.9763 15.7475 45.7692 13.9293C45.5681 13.6263 45.4675 13.3232 45.3669 13.2222C47.4793 14.2323 49.4911 15.6465 51.2012 17.3636ZM46.2722 23.8283C46.1716 23.9293 45.1657 24.0303 43.4556 24.1313C41.7456 24.2323 38.7278 24.3333 38.8284 24.2323C38.7278 24.1313 38.7278 21.303 38.7278 17.7677V11.404H38.8284C39.0296 11.404 39.8343 11.8081 40.3373 12.2121C42.6509 13.8283 44.7633 17.4646 45.9704 22.2121C46.2722 23.3232 46.3728 23.7273 46.2722 23.8283ZM38.5266 32.1111C38.5266 30.4949 38.5266 28.7778 38.5266 27.1616C41.142 27.1616 43.7574 27.0606 46.2722 26.8586C46.3728 26.8586 46.574 26.8586 46.6746 26.9596C46.7752 27.0606 46.7752 27.1616 46.7752 27.2626C47.0769 29.9899 47.0769 32.7172 46.7752 35.4444C46.6746 36.0505 46.6746 36.6566 46.4734 37.1616C46.4734 37.2626 46.4734 37.2626 46.3728 37.3636C46.2722 37.3636 46.2722 37.3636 46.1716 37.3636C43.858 37.2626 41.5444 37.2626 39.2308 37.1616C39.0296 37.1616 38.3254 37.1616 38.3254 37.1616C38.3254 37.1616 38.3254 36.2525 38.3254 36.0505C38.5266 34.7374 38.5266 33.4242 38.5266 32.1111ZM48.787 41.202L48.8876 40.798H49.3905C50.3965 40.798 54.1183 41.5051 54.2189 41.7071C54.3195 41.8081 53.9172 42.3131 53.3136 43.2222C52.6095 44.2323 52.1065 44.8384 51.2012 45.7475C49.6923 47.3636 47.8817 48.6768 46.071 49.6869C45.2663 50.0909 45.1657 50.1919 45.1657 50.0909C45.1657 50.0909 45.3669 49.6869 45.568 49.3838C46.8757 47.2626 47.9823 44.5354 48.787 41.202ZM18.9112 38.7778C18.9112 38.7778 18.6095 38.2727 18.5089 37.6667C17.6036 34.7374 17.4024 31.404 17.8047 28.4747C18.1065 26.8586 18.3077 25.6465 18.5089 25.5455C18.6095 25.4444 18.9112 25.5455 19.3136 25.6465C20.4201 25.9495 22.3314 26.1515 24.142 26.4545C24.4438 26.4545 24.8462 26.5556 24.8462 26.5556C24.8462 26.5556 24.8462 27.1616 24.7456 27.8687C24.5444 28.9798 24.5444 29.5859 24.5444 31.5051C24.5444 34.0303 24.645 34.9394 24.8462 36.6566C24.8462 37.0606 24.9467 37.3636 24.9467 37.5657V37.8687L24.5444 37.9697C22.9349 38.1717 21.1243 38.3737 19.8166 38.6768C19.3136 38.7778 18.9112 38.7778 18.9112 38.7778ZM30.2781 50.4949C30.0769 50.4949 29.071 50.0909 28.3669 49.6869C25.1479 47.9697 22.5325 45.5455 20.6213 42.4141C20.2189 41.7071 20.1183 41.6061 20.3195 41.505C20.6213 41.303 24.645 40.697 25.3491 40.697H25.7515L25.9527 41.404C26.4556 43.3232 26.9586 44.6364 27.7633 46.2525C28.4675 47.6667 28.9704 48.6768 29.7751 49.6869C29.9763 49.9899 30.1775 50.2929 30.2781 50.4949C30.3787 50.4949 30.3787 50.4949 30.2781 50.4949ZM35.8106 51.5051C35.5089 51.6061 34.4024 50.899 33.6982 50.2929C32.1894 49.0808 30.7811 46.8586 29.6746 44.3333C29.071 42.9192 28.3669 40.596 28.4675 40.4949C28.568 40.3939 30.7811 40.2929 33.2959 40.1919C35.2071 40.0909 35.6095 40.0909 35.7101 40.1919C35.8107 40.2929 35.8106 40.899 35.8106 45.8485C35.8106 50.4949 35.8106 51.404 35.8106 51.5051ZM34.6036 24.3333C32.6923 24.3333 28.1657 24.0303 28.1657 23.9293C28.0651 23.8283 28.4675 22.0101 28.9704 20.697C30.2781 16.6566 32.1893 13.7273 34.3018 12.2121C35.0059 11.8081 35.7101 11.505 35.8106 11.6061C35.9112 11.6061 35.9112 13.5253 35.9112 17.9697V24.3333H34.6036ZM39.1302 51.5051C38.929 51.6061 38.7278 51.7071 38.6272 51.7071C38.5266 51.7071 38.5266 50.798 38.5266 46.0505C38.5266 40.697 38.5266 40.2929 38.6272 40.2929C38.8284 40.1919 43.1538 40.3939 44.6627 40.4949C45.2663 40.596 45.8698 40.697 45.8698 40.697C45.9704 40.798 45.3669 42.9192 44.8639 44.2323C43.4556 47.8687 41.3432 50.596 39.1302 51.5051Z" fill="#CA4244"/>
</svg>
