<svg width="281" height="71" viewBox="0 0 281 71" fill="none" xmlns="http://www.w3.org/2000/svg">
<path d="M84.6857 17.618V17.9433L83.8905 18.4312C83.811 18.5126 83.7315 18.5939 83.7315 18.7565V19.4071C83.7315 19.6511 83.8905 19.8137 84.1291 19.8137H88.1048C88.3434 19.8137 88.5024 19.6511 88.5024 19.4071V18.7565C88.5024 18.5939 88.4229 18.5126 88.3434 18.4312L87.5482 17.9433V17.618C90.6493 17.5367 92.2396 15.9916 92.2396 13.1453V9.81108C92.2396 7.04612 90.5698 5.41968 87.5482 5.25703V5.01307L88.1844 4.60646C88.2639 4.52514 88.3434 4.44381 88.3434 4.28117V3.63059C88.3434 3.38662 88.1844 3.22398 87.9458 3.22398H84.2086C83.9701 3.22398 83.811 3.38662 83.811 3.63059V4.28117C83.811 4.44381 83.8905 4.52514 83.9701 4.60646L84.6062 5.01307V5.25703C81.5846 5.41968 79.9148 7.04612 79.9148 9.81108V13.1453C79.9943 15.9916 81.5846 17.5367 84.6857 17.618ZM82.9364 13.1453V9.81108C82.9364 8.91654 83.1749 7.53406 84.6062 7.37141V15.5036C83.2544 15.341 82.9364 14.2025 82.9364 13.1453ZM87.4687 15.5036V7.37141C88.5819 7.53406 89.1385 8.34728 89.1385 9.81108V13.1453C89.2181 14.2025 88.9 15.341 87.4687 15.5036Z" fill="#424143"/>
<path d="M98.6803 19.9762C101.543 19.9762 103.451 18.1871 103.451 15.4221V7.6152C103.451 4.85025 101.622 3.06116 98.6803 3.06116C95.8178 3.06116 93.9094 4.93157 93.9094 7.6152V15.4221C93.9094 18.1058 95.8178 19.9762 98.6803 19.9762ZM100.43 15.4221C100.43 15.9914 100.271 17.6992 98.6803 17.6992C97.8852 17.6992 96.931 17.4552 96.931 15.4221V7.6152C96.931 5.58215 97.8852 5.33818 98.6803 5.33818C100.35 5.33818 100.43 7.12727 100.43 7.6152V15.4221Z" fill="#424143"/>
<path d="M105.36 19.7324H109.495C109.733 19.7324 109.892 19.5698 109.892 19.3258V18.6752C109.892 18.5126 109.813 18.4312 109.733 18.3499L108.938 17.9433V12.4134H111.721V17.9433L110.926 18.3499C110.847 18.4312 110.767 18.5126 110.767 18.6752V19.3258C110.767 19.5698 110.926 19.7324 111.165 19.7324H115.299C115.538 19.7324 115.697 19.5698 115.697 19.3258V18.6752C115.697 18.5126 115.617 18.4312 115.538 18.3499L114.743 17.9433V5.09439L115.379 4.60646C115.458 4.52514 115.538 4.44381 115.538 4.28117V3.63059C115.538 3.38662 115.379 3.22398 115.14 3.22398H111.244C111.006 3.22398 110.847 3.38662 110.847 3.63059V4.28117C110.847 4.44381 110.926 4.52514 111.006 4.60646L111.642 5.09439V10.299H108.859V5.09439L109.495 4.60646C109.574 4.52514 109.654 4.44381 109.654 4.28117V3.63059C109.654 3.38662 109.495 3.22398 109.256 3.22398H105.36C105.121 3.22398 104.962 3.38662 104.962 3.63059V4.28117C104.962 4.44381 105.042 4.52514 105.121 4.60646L105.758 5.09439V17.9433L104.962 18.3499C104.803 18.4312 104.803 18.5126 104.803 18.6752V19.3258C104.962 19.5698 105.121 19.7324 105.36 19.7324Z" fill="#424143"/>
<path d="M116.253 22.0091H117.366C117.525 22.0091 117.684 21.9278 117.684 21.7652L118.241 19.7321H125.397L125.954 21.7652C126.033 21.9278 126.113 22.0091 126.272 22.0091H127.385C127.465 22.0091 127.544 21.9278 127.624 21.9278C127.703 21.8465 127.703 21.7652 127.703 21.6839L127.544 18.0244C127.544 17.8617 127.385 17.6991 127.147 17.6991H126.192V5.25676L126.828 4.76883C126.908 4.68751 126.987 4.60619 126.987 4.44354V3.79296C126.987 3.549 126.828 3.38635 126.59 3.38635H118.082C117.843 3.38635 117.684 3.549 117.684 3.79296V4.44354C117.684 4.60619 117.764 4.68751 117.843 4.76883L118.559 5.25676L117.366 16.5606C117.287 17.6177 116.889 17.6991 116.412 17.6991C116.332 17.6991 116.173 17.6991 116.014 17.6991C115.935 17.6991 115.776 17.6991 115.696 17.7804C115.617 17.8617 115.537 17.943 115.537 18.0244L115.378 21.6839C115.378 21.7652 115.378 21.8465 115.458 21.9278C116.094 22.0091 116.173 22.0091 116.253 22.0091ZM123.489 17.5364H119.911C120.149 17.1298 120.149 16.7232 120.229 16.2353L121.262 5.33809H123.489V17.5364Z" fill="#424143"/>
<path d="M139.988 9.02693H142.293C142.532 9.02693 142.691 8.86429 142.691 8.62032V4.22892C142.691 3.98495 142.532 3.8223 142.293 3.8223H140.783C140.624 3.8223 140.465 3.98495 140.385 4.1476L140.306 4.39156C139.669 3.90363 138.874 3.74098 137.92 3.74098C135.058 3.74098 133.388 5.44875 133.388 8.29503V16.0206C133.388 18.7856 135.217 20.5747 138.079 20.5747C141.021 20.5747 142.771 18.9482 142.771 16.1833V15.3701C142.771 15.1261 142.612 14.9635 142.373 14.9635H140.067C139.828 14.9635 139.669 15.1261 139.669 15.3701V16.1833C139.669 17.7284 139.192 18.2977 138 18.2977C137.204 18.2977 136.33 18.0537 136.33 16.0206V8.29503C136.33 6.83123 136.886 6.01801 137.92 6.01801C139.033 6.01801 139.51 6.66859 139.51 8.21371V8.62032C139.669 8.86429 139.828 9.02693 139.988 9.02693Z" fill="#424143"/>
<path d="M150.881 6.09858L151.517 8.3756C151.596 8.53825 151.676 8.61957 151.835 8.61957H152.869C153.107 8.61957 153.266 8.45692 153.266 8.21296C153.266 8.13163 153.266 8.13163 153.266 8.05031L153.187 4.22817C153.187 3.9842 153.028 3.82155 152.789 3.82155H143.883C143.645 3.82155 143.486 3.9842 143.486 4.22817L143.406 8.21296C143.406 8.29428 143.406 8.3756 143.486 8.45692C143.565 8.53824 143.645 8.53824 143.724 8.53824H144.758C144.917 8.53824 145.076 8.45692 145.076 8.29428L145.712 6.01726H146.667V18.2156L145.871 18.7848C145.792 18.8662 145.712 18.9475 145.712 19.1101V19.842C145.712 20.086 145.871 20.2486 146.11 20.2486H150.324C150.563 20.2486 150.722 20.086 150.722 19.842V19.1101C150.722 18.9475 150.642 18.8662 150.563 18.7848L149.768 18.2156V6.01726L150.881 6.09858Z" fill="#424143"/>
<path d="M158.912 14.6376C162.013 14.6376 163.603 13.3364 163.603 10.7341V7.96917C163.603 5.36686 161.934 3.98438 158.912 3.98438H154.539C154.3 3.98438 154.141 4.14702 154.141 4.39099V5.04156C154.141 5.20421 154.221 5.28553 154.3 5.36686L154.936 5.85479V18.5411L154.141 19.1103C154.062 19.1916 153.982 19.273 153.982 19.4356V20.0862C153.982 20.3301 154.141 20.4928 154.38 20.4928H158.514C158.753 20.4928 158.912 20.3301 158.912 20.0862V19.4356C158.912 19.273 158.833 19.1916 158.753 19.1103L157.958 18.5411V14.6376H158.912ZM160.582 10.7341C160.582 12.0353 160.105 12.6045 158.912 12.6045H157.878V6.09875H158.912C160.105 6.09875 160.582 6.58669 160.582 7.96917V10.7341Z" fill="#424143"/>
<path d="M170.123 19.4354V20.0047C170.123 20.2486 170.282 20.4113 170.521 20.4113H174.258C174.496 20.4113 174.655 20.2486 174.655 20.0047V19.2728C174.655 19.1101 174.576 19.0288 174.496 18.9475L173.86 18.5409L170.361 4.14684C170.282 3.9842 170.202 3.82155 169.964 3.82155H167.737C167.578 3.82155 167.419 3.90288 167.34 4.14684C166.704 6.9118 165.988 10.002 165.273 13.011C164.795 14.9627 164.398 16.8331 164 18.6222L163.364 18.9475C163.205 19.0288 163.205 19.1101 163.205 19.2728V20.0047C163.205 20.2486 163.364 20.4113 163.603 20.4113H166.545C166.783 20.4113 166.942 20.2486 166.942 20.0047V19.2728C166.942 19.1101 166.863 19.0288 166.704 18.9475L166.227 18.7035L166.783 16.1825H170.202L170.839 18.7848L170.441 19.1101C170.123 19.1915 170.123 19.2728 170.123 19.4354ZM169.566 14.1495H167.101L168.374 8.61957L169.566 14.1495Z" fill="#424143"/>
<path d="M173.622 4.30949L173.543 8.29428C173.543 8.3756 173.543 8.45692 173.622 8.53824C173.702 8.61957 173.781 8.61957 173.861 8.61957H174.895C175.054 8.61957 175.213 8.53825 175.213 8.3756L175.849 6.09858H176.803V18.2969L176.008 18.8662C175.928 18.9475 175.849 19.0288 175.849 19.1915V19.9234C175.849 20.1673 176.008 20.33 176.246 20.33H180.461C180.699 20.33 180.858 20.1673 180.858 19.9234V19.1915C180.858 19.0288 180.779 18.9475 180.699 18.8662L179.904 18.2969V6.09858H180.858L181.494 8.3756C181.574 8.53825 181.653 8.61957 181.812 8.61957H182.846C183.085 8.61957 183.244 8.45692 183.244 8.21296C183.244 8.13163 183.244 8.13163 183.244 8.05031L183.164 4.22817C183.164 3.9842 183.005 3.82155 182.767 3.82155H173.861C173.861 3.9842 173.622 4.14685 173.622 4.30949Z" fill="#424143"/>
<path d="M184.436 20.33H192.626C192.865 20.33 193.024 20.1673 193.024 19.9234V16.4265C193.024 16.1825 192.865 16.0199 192.626 16.0199H191.672C191.513 16.0199 191.354 16.1012 191.354 16.2639L190.718 18.1343H188.014C188.094 17.9716 188.094 17.809 188.094 17.7277V13.1736H189.604L190.081 14.1495C190.161 14.3121 190.241 14.3934 190.4 14.3934H191.036C191.274 14.3934 191.433 14.2308 191.433 13.9868V10.246C191.433 10.002 191.274 9.8394 191.036 9.8394H190.32C190.161 9.8394 190.081 9.92072 190.002 10.0834L189.525 11.0592H188.014V5.93593H190.32L190.877 7.88767C190.956 8.05031 191.036 8.13163 191.195 8.13163H192.308C192.546 8.13163 192.705 7.96899 192.705 7.72502V4.22817C192.705 3.9842 192.546 3.82155 192.308 3.82155H184.515C184.277 3.82155 184.118 3.9842 184.118 4.22817V4.79742C184.118 4.96007 184.197 5.04139 184.277 5.12271L184.913 5.61064V18.3782L184.118 18.9475C184.038 19.0288 183.959 19.1101 183.959 19.2728V19.9234C184.038 20.1673 184.277 20.33 184.436 20.33Z" fill="#424143"/>
<path d="M194.455 20.33H198.59C198.829 20.33 198.988 20.1673 198.988 19.9234V19.2728C198.988 19.1101 198.908 19.0288 198.829 18.9475L198.034 18.3782V5.93593H200.498L201.055 8.13163C201.135 8.29428 201.214 8.3756 201.373 8.3756H202.407C202.645 8.3756 202.804 8.21296 202.804 7.96899V4.22817C202.804 3.9842 202.645 3.82155 202.407 3.82155H194.614C194.376 3.82155 194.217 3.9842 194.217 4.22817V4.87874C194.217 4.96006 194.296 5.12271 194.376 5.20403L195.091 5.77329V18.3782L194.296 18.9475C194.217 19.0288 194.137 19.1101 194.137 19.2728V19.9234C194.058 20.1673 194.296 20.33 194.455 20.33Z" fill="#424143"/>
<path d="M203.838 20.33H207.973C208.211 20.33 208.37 20.1673 208.37 19.9234V19.2728C208.37 19.1101 208.291 19.0288 208.211 18.9475L207.496 18.4596L210.04 11.5472L210.279 10.8153C210.279 11.7098 210.279 12.6044 210.279 13.4989C210.279 15.1253 210.279 16.8331 210.279 18.3782L209.483 18.9475C209.404 19.0288 209.324 19.1101 209.324 19.2728V19.9234C209.324 20.1673 209.483 20.33 209.722 20.33H213.857C214.095 20.33 214.254 20.1673 214.254 19.9234V19.2728C214.254 19.1101 214.175 19.0288 214.095 18.9475L213.3 18.3782V5.69197L213.936 5.20403C214.016 5.12271 214.095 5.04139 214.095 4.87874V4.22817C214.095 3.9842 213.936 3.82155 213.698 3.82155H209.881C209.643 3.82155 209.483 3.9842 209.483 4.22817V4.87874C209.483 4.96006 209.563 5.12271 209.643 5.20403L210.199 5.69197L207.496 12.9296L207.337 13.4989V5.69197L207.973 5.20403C208.052 5.12271 208.132 5.04139 208.132 4.87874V4.22817C208.132 3.9842 207.973 3.82155 207.734 3.82155H203.997C203.758 3.82155 203.599 3.9842 203.599 4.22817V4.87874C203.599 5.04139 203.679 5.12271 203.758 5.20403L204.395 5.69197V18.3782L203.599 18.9475C203.52 19.0288 203.44 19.1101 203.44 19.2728V19.9234C203.44 20.1673 203.599 20.33 203.838 20.33Z" fill="#424143"/>
<path d="M224.512 18.4596V5.77329L225.148 5.28535C225.227 5.20403 225.307 5.12271 225.307 4.96007V4.30949C225.307 4.06552 225.148 3.90288 224.909 3.90288H221.013C220.774 3.90288 220.615 4.06552 220.615 4.30949V4.96007C220.615 5.12271 220.695 5.20403 220.774 5.28535L221.411 5.77329V11.7911H220.456C218.866 11.7911 218.628 10.0834 218.628 9.02618V5.77329L219.423 5.20403C219.502 5.12271 219.582 5.04139 219.582 4.87874V4.22817C219.582 3.9842 219.423 3.82155 219.184 3.82155H214.97C214.731 3.82155 214.572 3.9842 214.572 4.22817V4.87874C214.572 5.04139 214.652 5.12271 214.731 5.20403L215.526 5.77329V9.02618C215.526 12.0351 217.435 14.0682 220.377 14.0682H221.411V18.4596L220.615 19.0288C220.536 19.1101 220.456 19.1915 220.456 19.3541V20.0047C220.456 20.2486 220.615 20.4113 220.854 20.4113H224.989C225.227 20.4113 225.386 20.2486 225.386 20.0047V19.3541C225.386 19.1915 225.307 19.1101 225.227 19.0288L224.512 18.4596Z" fill="#424143"/>
<path d="M235.246 16.1017H234.292C234.133 16.1017 233.974 16.183 233.974 16.3457L233.258 18.2161H230.555C230.634 18.0534 230.634 17.8908 230.634 17.8095V13.2554H232.145L232.622 14.2313C232.702 14.3939 232.781 14.4752 232.94 14.4752H233.577C233.815 14.4752 233.974 14.3126 233.974 14.0686V10.3278C233.974 10.0838 233.815 9.9212 233.577 9.9212H232.94C232.781 9.9212 232.702 10.0025 232.622 10.1652L232.145 11.141H230.634V6.01773H232.94L233.497 7.96947C233.577 8.13211 233.656 8.21344 233.815 8.21344H234.928C235.167 8.21344 235.326 8.05079 235.326 7.80682V4.30997C235.326 4.066 235.167 3.90336 234.928 3.90336H227.136C226.897 3.90336 226.738 4.066 226.738 4.30997V4.87922C226.738 5.04187 226.818 5.12319 226.897 5.20451L227.533 5.69244V18.46L226.738 19.0293C226.659 19.1106 226.579 19.1919 226.579 19.3546V20.0052C226.579 20.2491 226.738 20.4118 226.977 20.4118H235.167C235.405 20.4118 235.564 20.2491 235.564 20.0052V16.5083C235.564 16.2643 235.405 16.1017 235.246 16.1017Z" fill="#424143"/>
<path d="M246.061 15.044H243.755C243.516 15.044 243.357 15.2067 243.357 15.4506V16.2639C243.357 17.809 242.88 18.3782 241.687 18.3782C240.892 18.3782 240.017 18.1343 240.017 16.1012V8.3756C240.017 6.9118 240.574 6.09858 241.608 6.09858C242.721 6.09858 243.198 6.74916 243.198 8.29428V8.70089C243.198 8.94486 243.357 9.1075 243.596 9.1075H245.981C246.22 9.1075 246.379 8.94486 246.379 8.70089V4.30949C246.379 4.06552 246.22 3.90288 245.981 3.90288H244.47C244.311 3.90288 244.152 4.06552 244.073 4.22817L243.993 4.47213C243.357 3.9842 242.562 3.82155 241.608 3.82155C238.745 3.82155 237.075 5.52932 237.075 8.3756V16.1012C237.075 18.8662 238.904 20.6553 241.767 20.6553C244.709 20.6553 246.458 19.0288 246.458 16.2639V15.4506C246.458 15.2067 246.299 15.044 246.061 15.044Z" fill="#424143"/>
<path d="M258.067 18.6224C257.67 18.7037 257.352 18.1344 257.193 17.5652L256.477 14.3123C256.159 12.7672 255.602 11.71 254.807 11.3034C255.284 10.6528 255.682 9.43297 256.159 7.88784C256.318 7.31859 256.477 6.74933 256.636 6.42404C256.875 5.77347 257.034 5.61082 257.511 5.61082C257.59 5.61082 257.67 5.61082 257.749 5.5295C257.829 5.44818 257.829 5.36685 257.829 5.28553V4.39099C257.829 4.14702 257.67 3.98438 257.431 3.98438H256.636C256 3.98438 255.284 4.0657 254.728 4.47231C253.774 5.20421 253.376 6.50537 253.058 7.80652C252.66 9.43297 252.263 10.4902 251.388 10.7341V5.85479L252.024 5.36686C252.104 5.28553 252.183 5.20421 252.183 5.04156V4.39099C252.183 4.14702 252.024 3.98438 251.786 3.98438H247.89C247.651 3.98438 247.492 4.14702 247.492 4.39099V5.04156C247.492 5.20421 247.571 5.28553 247.651 5.36686L248.287 5.85479V18.5411L247.492 19.1103C247.412 19.1916 247.333 19.273 247.333 19.4356V20.0862C247.333 20.3301 247.492 20.4928 247.73 20.4928H251.865C252.104 20.4928 252.263 20.3301 252.263 20.0862V19.4356C252.263 19.273 252.183 19.1916 252.104 19.1103L251.309 18.5411V12.7672H251.627C252.581 12.7672 253.138 13.4178 253.456 14.9629L254.092 18.0531C254.33 19.1916 254.807 20.5741 256.557 20.5741C257.034 20.5741 257.67 20.4928 258.226 20.2488C258.306 20.1675 258.385 20.0862 258.385 19.9235V19.029C258.385 18.9477 258.306 18.785 258.226 18.7037C258.306 18.6224 258.226 18.5411 258.067 18.6224Z" fill="#424143"/>
<path d="M263.951 3.74098C261.089 3.74098 259.18 5.61139 259.18 8.29503V16.102C259.18 18.8669 261.089 20.656 263.951 20.656C266.814 20.656 268.722 18.8669 268.722 16.102V8.29503C268.722 5.53007 266.814 3.74098 263.951 3.74098ZM262.202 8.29503C262.202 6.26197 263.156 6.01801 263.951 6.01801C265.621 6.01801 265.701 7.80709 265.701 8.29503V16.102C265.701 16.6712 265.542 18.379 263.951 18.379C263.156 18.379 262.202 18.135 262.202 16.102V8.29503Z" fill="#424143"/>
<path d="M280.888 19.0293L280.093 18.46V5.77377L280.729 5.28583C280.808 5.20451 280.888 5.12319 280.888 4.96055V4.30997C280.888 4.066 280.729 3.90336 280.49 3.90336H276.673C276.435 3.90336 276.276 4.066 276.276 4.30997V4.96055C276.276 5.04187 276.355 5.20451 276.435 5.28583L276.991 5.77377L274.288 13.0114L274.129 13.5807V5.77377L274.765 5.28583C274.845 5.20451 274.924 5.12319 274.924 4.96055V4.30997C274.924 4.066 274.765 3.90336 274.527 3.90336H270.71C270.471 3.90336 270.312 4.066 270.312 4.30997V4.96055C270.312 5.12319 270.392 5.20451 270.471 5.28583L271.107 5.77377V18.46L270.312 19.0293C270.233 19.1106 270.153 19.1919 270.153 19.3546V20.0052C270.153 20.2491 270.312 20.4118 270.551 20.4118H274.686C274.924 20.4118 275.083 20.2491 275.083 20.0052V19.3546C275.083 19.1919 275.004 19.1106 274.924 19.0293L274.208 18.5414L276.753 11.629L276.991 10.8971C276.991 11.7916 276.991 12.6862 276.991 13.5807C276.991 15.2071 276.991 16.9149 276.991 18.46L276.196 19.0293C276.117 19.1106 276.037 19.1919 276.037 19.3546V20.0052C276.037 20.2491 276.196 20.4118 276.435 20.4118H280.57C280.808 20.4118 280.967 20.2491 280.967 20.0052V19.3546C281.047 19.2733 280.967 19.1106 280.888 19.0293Z" fill="#424143"/>
<path d="M275.719 3.41553C276.594 3.41553 277.31 3.17157 277.787 2.68364C278.264 2.1957 278.502 1.4638 278.502 0.569256C278.502 0.406612 278.343 0.243967 278.184 0.162645L277.389 0C277.31 0 277.15 1.86265e-06 277.071 0.0813241C276.991 0.162646 276.912 0.243968 276.912 0.32529C276.832 0.813224 276.355 1.05719 275.64 1.05719C275.004 1.05719 274.526 0.731901 274.447 0.32529C274.447 0.243968 274.367 0.162646 274.288 0.0813241C274.208 1.86265e-06 274.129 0 274.049 0L273.254 0.162645C273.095 0.162645 272.936 0.32529 272.936 0.569256C272.936 1.4638 273.175 2.1957 273.652 2.68364C274.208 3.17157 274.845 3.41553 275.719 3.41553Z" fill="#424143"/>
<path d="M110.448 46.3275V33.4786L111.084 32.9907C111.164 32.9094 111.243 32.828 111.243 32.6654V32.0148C111.243 31.7709 111.084 31.6082 110.846 31.6082H102.497C102.258 31.6082 102.099 31.7709 102.099 32.0148V32.6654C102.099 32.828 102.179 32.9094 102.258 32.9907L102.974 33.5599L101.781 45.2703C101.702 46.3275 101.304 46.3275 101.066 46.3275C100.906 46.3275 100.747 46.3275 100.668 46.2462C100.588 46.2462 100.429 46.2462 100.35 46.3275C100.27 46.4089 100.191 46.4902 100.191 46.5715L100.111 47.6287C100.111 47.7913 100.191 47.954 100.35 48.0353C100.827 48.1979 101.225 48.2793 101.622 48.2793C102.497 48.2793 103.928 47.954 104.167 45.5143L105.359 33.8039H107.347V46.3275L106.552 46.7341C106.473 46.8155 106.393 46.8968 106.393 47.0594V47.71C106.393 47.954 106.552 48.1166 106.791 48.1166H110.925C111.164 48.1166 111.323 47.954 111.323 47.71V47.0594C111.482 46.9781 111.402 46.8155 111.243 46.7341L110.448 46.3275Z" fill="#424143"/>
<path d="M89.377 45.2706C89.536 45.8398 89.8541 46.4091 90.2516 46.3278C90.4107 46.3278 90.4902 46.3278 90.4107 46.4091C90.4902 46.4904 90.5697 46.653 90.5697 46.7344V47.6289C90.5697 47.7916 90.4902 47.8729 90.4107 47.9542C89.854 48.1982 89.2179 48.2795 88.7408 48.2795C86.9915 48.2795 86.5144 46.897 86.2759 45.7585L85.6397 42.6683C85.3217 41.1231 84.7651 40.4726 83.8109 40.4726H83.4928V46.2464L84.288 46.8157C84.3675 46.897 84.447 46.9783 84.447 47.141V47.7916C84.447 48.0355 84.288 48.1982 84.0494 48.1982H79.9147C79.6761 48.1982 79.5171 48.0355 79.5171 47.7916V47.141C79.5171 46.9783 79.5966 46.897 79.6761 46.8157L80.4713 46.2464V33.5602L79.8351 33.0722C79.7556 32.9909 79.6761 32.9096 79.6761 32.7469V32.0964C79.6761 31.8524 79.8351 31.6898 80.0737 31.6898H83.9699C84.2085 31.6898 84.3675 31.8524 84.3675 32.0964V32.7469C84.3675 32.9096 84.288 32.9909 84.2085 33.0722L83.5724 33.5602V38.4395C84.447 38.1955 84.8446 37.1383 85.2422 35.5119C85.5602 34.2107 85.9578 32.9096 86.912 32.1777C87.4686 31.7711 88.1842 31.6898 88.8204 31.6898H89.6155C89.854 31.6898 90.0131 31.8524 90.0131 32.0964V32.9909C90.0131 33.0722 90.0131 33.1536 89.9336 33.2349C89.854 33.3162 89.7745 33.3162 89.695 33.3162C89.2179 33.3162 89.0589 33.4788 88.8204 34.1294C88.6613 34.4547 88.5023 35.024 88.3433 35.5932C87.8662 37.1383 87.4686 38.3582 86.9915 39.0088C87.7867 39.4154 88.3433 40.4726 88.6613 42.0177L89.377 45.2706Z" fill="#424143"/>
<path d="M101.543 32.7469C101.543 32.9096 101.463 32.9909 101.384 33.0722L100.748 33.3975L96.5332 46.1651C96.0561 47.6289 95.102 48.4421 93.7502 48.4421C93.2731 48.4421 92.7165 48.2795 92.1599 48.1168C92.0009 48.1168 91.9214 47.8729 91.9214 47.7102L92.1599 46.653C92.1599 46.5717 92.2394 46.4904 92.3189 46.4091H92.637C92.7034 46.426 92.7663 46.443 92.8265 46.4592C93.0546 46.5208 93.2434 46.5717 93.4321 46.5717C93.7502 46.5717 94.0683 46.4091 94.3863 45.5145L95.0224 43.8067L91.3647 33.4788L90.5696 33.1535C90.4106 33.1535 90.3311 32.9909 90.3311 32.8282V32.1777C90.3311 31.9337 90.4901 31.7711 90.7286 31.7711H92.955C93.9887 31.7711 94.2273 32.0963 94.5454 32.9096L96.6127 39.1714L98.4416 33.3162L97.9645 33.0722C97.8055 32.9909 97.726 32.9096 97.726 32.7469V32.1777C97.726 31.9337 97.885 31.7711 98.1235 31.7711H101.145C101.384 31.7711 101.543 31.9337 101.543 32.1777V32.7469Z" fill="#424143"/>
<path fill-rule="evenodd" clip-rule="evenodd" d="M116.571 37.6263H117.525C120.626 37.6263 122.217 38.9274 122.296 41.6111V44.2134C122.296 46.8157 120.626 48.1982 117.605 48.1982H113.152C112.913 48.1982 112.754 48.0355 112.754 47.7916V47.141C112.754 46.9783 112.834 46.897 112.913 46.8157L113.549 46.3278V33.6415L112.754 33.0722C112.675 32.9909 112.595 32.9096 112.595 32.7469V32.0964C112.595 31.8524 112.754 31.6898 112.993 31.6898H117.128C117.366 31.6898 117.525 31.8524 117.525 32.0964V32.7469C117.525 32.9096 117.446 32.9909 117.366 33.0722L116.571 33.6415V37.6263ZM116.571 46.0025H117.605C118.797 46.0025 119.195 45.4332 119.274 44.1321V41.5297C119.274 40.2286 118.797 39.6593 117.605 39.6593H116.571V46.0025Z" fill="#424143"/>
<path d="M142.175 31.6898H139.153C138.915 31.6898 138.755 31.8524 138.755 32.0964V32.6656C138.755 32.8283 138.835 32.9096 138.994 32.9909L139.471 33.2349L137.642 39.1714L135.575 32.9096C135.257 32.0964 135.018 31.7711 133.985 31.7711H131.758C131.599 31.7711 131.52 31.8524 131.44 32.015C131.361 31.8524 131.281 31.7711 131.122 31.7711H122.216C121.978 31.7711 121.819 31.9337 121.819 32.1777L121.739 36.1625C121.739 36.2438 121.739 36.3251 121.819 36.4064C121.898 36.4878 121.978 36.4878 122.057 36.4878H123.091C123.25 36.4878 123.409 36.4064 123.409 36.2438L124.045 33.9668H124.999V46.1651L124.204 46.7344C124.125 46.8157 124.045 46.897 124.045 47.0597V47.7916C124.045 48.0355 124.204 48.1982 124.443 48.1982H128.657C128.896 48.1982 129.055 48.0355 129.055 47.7916V47.0597C129.055 46.897 128.975 46.8157 128.896 46.7344L128.1 46.1651V33.9668H129.055L129.691 36.2438C129.77 36.4064 129.85 36.4878 130.009 36.4878H131.043C131.281 36.4878 131.44 36.3251 131.44 36.0812V35.9185L131.361 32.9159C131.363 32.9615 131.393 32.9802 131.433 33.0056C131.459 33.022 131.489 33.0412 131.52 33.0722L132.315 33.3975L135.972 43.7254L135.336 45.4332C135.018 46.3278 134.7 46.4904 134.382 46.4904C134.193 46.4904 134.005 46.4395 133.776 46.3779C133.716 46.3617 133.653 46.3447 133.587 46.3278H133.269C133.189 46.4091 133.11 46.4904 133.11 46.5717L132.871 47.6289C132.871 47.7916 132.951 48.0355 133.11 48.0355C133.667 48.1982 134.223 48.3608 134.7 48.3608C136.052 48.3608 137.006 47.5476 137.483 46.0838L141.698 33.3162L142.334 32.9909C142.413 32.9096 142.493 32.8283 142.493 32.6656V32.0964C142.572 31.8524 142.413 31.6898 142.175 31.6898Z" fill="#424143"/>
<path fill-rule="evenodd" clip-rule="evenodd" d="M143.288 31.6898H147.741C150.762 31.6898 152.432 33.1536 152.353 35.7559V38.5208C152.353 41.1231 150.762 42.4243 147.661 42.4243H146.707V46.2464L147.502 46.8157C147.582 46.897 147.661 46.9783 147.661 47.141V47.7916C147.661 48.0355 147.502 48.1982 147.264 48.1982H143.129C142.89 48.1982 142.731 48.0355 142.731 47.7916V47.141C142.731 46.9783 142.811 46.897 142.89 46.8157L143.686 46.2464V33.5602L143.049 33.0722C142.97 32.9909 142.89 32.9096 142.89 32.7469V32.0964C142.89 31.8524 143.05 31.6898 143.288 31.6898ZM146.707 40.3912H147.741C148.934 40.3912 149.411 39.822 149.411 38.5208V35.7559C149.411 34.3734 148.934 33.8855 147.741 33.8855H146.707V40.3912Z" fill="#424143"/>
<path d="M167.699 46.2462V33.4786L168.335 32.9907C168.415 32.9094 168.494 32.828 168.494 32.6654V32.0148C168.494 31.7709 168.335 31.6082 168.097 31.6082H164.201C163.962 31.6082 163.803 31.7709 163.803 32.0148V32.6654C163.803 32.828 163.883 32.9094 163.962 32.9907L164.598 33.4786V46.1649L163.803 46.7341C163.724 46.8155 163.644 46.8968 163.644 47.0594V47.71C163.644 47.954 163.803 48.1166 164.042 48.1166H168.176C168.415 48.1166 168.574 47.954 168.574 47.71V47.0594C168.574 46.8968 168.494 46.8155 168.415 46.7341L167.699 46.2462Z" fill="#424143"/>
<path fill-rule="evenodd" clip-rule="evenodd" d="M157.362 37.6263H158.317C161.418 37.6263 163.008 38.9274 163.088 41.6111V44.2134C163.088 46.8157 161.418 48.1982 158.396 48.1982H153.943C153.705 48.1982 153.546 48.0355 153.546 47.7916V47.141C153.546 46.9783 153.625 46.897 153.705 46.8157L154.341 46.3278V33.6415L153.546 33.0722C153.466 32.9909 153.387 32.9096 153.387 32.7469V32.0964C153.387 31.8524 153.546 31.6898 153.784 31.6898H157.919C158.158 31.6898 158.317 31.8524 158.317 32.0964V32.7469C158.317 32.9096 158.237 32.9909 158.158 33.0722L157.362 33.6415V37.6263ZM157.362 46.0025H158.396C159.589 46.0025 159.986 45.4332 160.066 44.1321V41.5297C160.066 40.2286 159.589 39.6593 158.396 39.6593H157.362V46.0025Z" fill="#424143"/>
<path d="M82.44 58.4221C83.1533 58.4221 83.72 58.5388 84.14 58.7721C84.56 58.9988 84.86 59.3721 85.04 59.8921C85.2267 60.4121 85.32 61.1121 85.32 61.9921C85.32 62.8721 85.2267 63.5721 85.04 64.0921C84.86 64.6121 84.56 64.9888 84.14 65.2221C83.72 65.4488 83.1533 65.5621 82.44 65.5621C81.9667 65.5621 81.5733 65.5421 81.26 65.5021C80.9533 65.4621 80.6533 65.3954 80.36 65.3021L80.47 64.3721C80.7567 64.4121 81.0467 64.4388 81.34 64.4521C81.6333 64.4654 82 64.4721 82.44 64.4721C82.8467 64.4721 83.1667 64.3988 83.4 64.2521C83.6333 64.0988 83.7967 63.8421 83.89 63.4821C83.99 63.1221 84.0367 62.6254 84.03 61.9921C84.0367 61.3588 83.99 60.8621 83.89 60.5021C83.7967 60.1421 83.6333 59.8888 83.4 59.7421C83.1667 59.5888 82.8467 59.5121 82.44 59.5121C82.16 59.5121 81.9167 59.5154 81.71 59.5221C81.5033 59.5288 81.3067 59.5354 81.12 59.5421C80.94 59.5488 80.7433 59.5621 80.53 59.5821L80.42 58.6421C80.62 58.5888 80.8133 58.5488 81 58.5221C81.1933 58.4888 81.4033 58.4654 81.63 58.4521C81.8633 58.4321 82.1333 58.4221 82.44 58.4221ZM85 61.3821V62.2621L81.14 62.2521V61.3821H85Z" fill="#CA4244"/>
<path d="M93.5215 58.5421V59.4621H91.3115C90.8915 59.4621 90.6648 59.6721 90.6315 60.0921C90.5915 60.5988 90.5515 61.0488 90.5115 61.4421C90.4782 61.8354 90.4348 62.1888 90.3815 62.5021C90.3348 62.8088 90.2815 63.0888 90.2215 63.3421C90.1615 63.5888 90.0815 63.8221 89.9815 64.0421C89.8482 64.3888 89.6815 64.6721 89.4815 64.8921C89.2882 65.1121 89.0615 65.2688 88.8015 65.3621C88.5415 65.4554 88.2515 65.4888 87.9315 65.4621L87.8315 64.4921C88.0515 64.4388 88.2415 64.3588 88.4015 64.2521C88.5682 64.1388 88.7082 63.9554 88.8215 63.7021C88.8882 63.5488 88.9448 63.3888 88.9915 63.2221C89.0448 63.0554 89.0915 62.8721 89.1315 62.6721C89.1715 62.4654 89.2082 62.2321 89.2415 61.9721C89.2748 61.7121 89.3048 61.4154 89.3315 61.0821C89.3648 60.7488 89.3982 60.3688 89.4315 59.9421C89.5115 59.0088 90.0115 58.5421 90.9315 58.5421H93.5215ZM93.6715 58.5421V65.4421H92.4115V58.5421H93.6715Z" fill="#CA4244"/>
<path d="M98.5812 58.5221C98.9278 58.5221 99.2812 58.5221 99.6412 58.5221C100.008 58.5221 100.365 58.5288 100.711 58.5421C101.065 58.5554 101.401 58.5754 101.721 58.6021L101.661 59.5321H98.9612C98.7745 59.5321 98.6378 59.5788 98.5512 59.6721C98.4645 59.7654 98.4212 59.9121 98.4212 60.1121V63.8721C98.4212 64.0721 98.4645 64.2188 98.5512 64.3121C98.6378 64.4054 98.7745 64.4521 98.9612 64.4521H101.661L101.721 65.3821C101.401 65.4088 101.065 65.4288 100.711 65.4421C100.365 65.4488 100.008 65.4521 99.6412 65.4521C99.2812 65.4588 98.9278 65.4621 98.5812 65.4621C98.1545 65.4621 97.8112 65.3454 97.5512 65.1121C97.2978 64.8721 97.1712 64.5521 97.1712 64.1521V59.8321C97.1712 59.4321 97.2978 59.1154 97.5512 58.8821C97.8112 58.6421 98.1545 58.5221 98.5812 58.5221ZM97.3412 61.3721H101.281V62.2921H97.3412V61.3721Z" fill="#CA4244"/>
<path d="M109.974 58.5421C109.834 58.9688 109.707 59.3521 109.594 59.6921C109.481 60.0254 109.364 60.3188 109.244 60.5721C109.131 60.8254 109.007 61.0388 108.874 61.2121C108.741 61.3854 108.584 61.5221 108.404 61.6221C108.224 61.7221 108.007 61.7888 107.754 61.8221V61.8621C108.021 61.8954 108.251 61.9621 108.444 62.0621C108.637 62.1621 108.804 62.3054 108.944 62.4921C109.091 62.6788 109.224 62.9088 109.344 63.1821C109.471 63.4554 109.597 63.7788 109.724 64.1521C109.851 64.5254 109.997 64.9554 110.164 65.4421H108.844C108.664 64.8821 108.504 64.4054 108.364 64.0121C108.231 63.6121 108.091 63.2888 107.944 63.0421C107.804 62.7888 107.637 62.6021 107.444 62.4821C107.257 62.3621 107.017 62.3021 106.724 62.3021L106.714 61.3921C106.994 61.3921 107.227 61.3288 107.414 61.2021C107.607 61.0754 107.774 60.8921 107.914 60.6521C108.054 60.4054 108.184 60.1054 108.304 59.7521C108.424 59.3988 108.557 58.9954 108.704 58.5421H109.974ZM106.194 58.5421V60.5821C106.194 60.7954 106.177 61.0088 106.144 61.2221C106.117 61.4288 106.074 61.6321 106.014 61.8321C106.061 62.0254 106.101 62.2254 106.134 62.4321C106.174 62.6321 106.194 62.8254 106.194 63.0121V65.4421H104.944V58.5421H106.194ZM107.134 61.3921V62.3021H105.854V61.3921H107.134Z" fill="#CA4244"/>
<path d="M115.985 58.5421V65.4421H114.735V58.5421H115.985ZM118.125 58.5421V59.5621H112.595V58.5421H118.125Z" fill="#CA4244"/>
<path d="M123.642 58.4521C124.242 58.4521 124.716 58.5188 125.062 58.6521C125.416 58.7788 125.666 59.0021 125.812 59.3221C125.959 59.6354 126.032 60.0821 126.032 60.6621C126.032 61.2421 125.959 61.6921 125.812 62.0121C125.672 62.3321 125.439 62.5554 125.112 62.6821C124.786 62.8088 124.346 62.8721 123.792 62.8721C123.492 62.8721 123.202 62.8621 122.922 62.8421C122.649 62.8221 122.392 62.7954 122.152 62.7621C121.919 62.7288 121.719 62.6954 121.552 62.6621C121.386 62.6221 121.269 62.5888 121.202 62.5621L121.232 61.8921C121.612 61.8921 122.002 61.8921 122.402 61.8921C122.809 61.8921 123.212 61.8921 123.612 61.8921C123.906 61.8854 124.136 61.8488 124.302 61.7821C124.476 61.7154 124.596 61.5954 124.662 61.4221C124.736 61.2421 124.772 60.9888 124.772 60.6621C124.772 60.3354 124.736 60.0854 124.662 59.9121C124.596 59.7321 124.476 59.6088 124.302 59.5421C124.136 59.4688 123.906 59.4321 123.612 59.4321C123.026 59.4321 122.522 59.4354 122.102 59.4421C121.682 59.4488 121.396 59.4588 121.242 59.4721L121.102 58.5421C121.369 58.5154 121.619 58.4954 121.852 58.4821C122.092 58.4688 122.349 58.4621 122.622 58.4621C122.902 58.4554 123.242 58.4521 123.642 58.4521ZM122.352 58.5421V65.4421H121.102V58.5421H122.352Z" fill="#CA4244"/>
<path d="M131.786 58.4121C132.32 58.4121 132.77 58.4721 133.136 58.5921C133.503 58.7054 133.796 58.8988 134.016 59.1721C134.236 59.4454 134.396 59.8121 134.496 60.2721C134.603 60.7321 134.656 61.3054 134.656 61.9921C134.656 62.6721 134.603 63.2454 134.496 63.7121C134.396 64.1721 134.236 64.5388 134.016 64.8121C133.796 65.0854 133.503 65.2821 133.136 65.4021C132.77 65.5154 132.32 65.5721 131.786 65.5721C131.266 65.5721 130.823 65.5154 130.456 65.4021C130.09 65.2821 129.793 65.0854 129.566 64.8121C129.34 64.5388 129.176 64.1721 129.076 63.7121C128.976 63.2454 128.926 62.6721 128.926 61.9921C128.926 61.3054 128.976 60.7321 129.076 60.2721C129.176 59.8121 129.34 59.4454 129.566 59.1721C129.793 58.8988 130.09 58.7054 130.456 58.5921C130.823 58.4721 131.266 58.4121 131.786 58.4121ZM131.786 59.4321C131.393 59.4321 131.083 59.5121 130.856 59.6721C130.636 59.8254 130.48 60.0888 130.386 60.4621C130.293 60.8288 130.246 61.3388 130.246 61.9921C130.246 62.6454 130.293 63.1588 130.386 63.5321C130.48 63.8988 130.636 64.1621 130.856 64.3221C131.083 64.4754 131.393 64.5521 131.786 64.5521C132.186 64.5521 132.496 64.4754 132.716 64.3221C132.943 64.1621 133.103 63.8988 133.196 63.5321C133.29 63.1588 133.336 62.6454 133.336 61.9921C133.336 61.3388 133.29 60.8288 133.196 60.4621C133.103 60.0888 132.943 59.8254 132.716 59.6721C132.496 59.5121 132.186 59.4321 131.786 59.4321Z" fill="#CA4244"/>
<path d="M139.224 58.5421V65.4421H137.964V58.5421H139.224ZM142.094 61.2721V62.2521H139.144V61.2721H142.094ZM143.234 58.5421V65.4421H141.984V58.5421H143.234Z" fill="#CA4244"/>
<path d="M148.06 58.5421V65.4421H146.8V58.5421H148.06ZM150.93 61.2721V62.2521H147.98V61.2721H150.93ZM152.07 58.5421V65.4421H150.82V58.5421H152.07Z" fill="#CA4244"/>
<path d="M158.245 58.4121C158.779 58.4121 159.229 58.4721 159.595 58.5921C159.962 58.7054 160.255 58.8988 160.475 59.1721C160.695 59.4454 160.855 59.8121 160.955 60.2721C161.062 60.7321 161.115 61.3054 161.115 61.9921C161.115 62.6721 161.062 63.2454 160.955 63.7121C160.855 64.1721 160.695 64.5388 160.475 64.8121C160.255 65.0854 159.962 65.2821 159.595 65.4021C159.229 65.5154 158.779 65.5721 158.245 65.5721C157.725 65.5721 157.282 65.5154 156.915 65.4021C156.549 65.2821 156.252 65.0854 156.025 64.8121C155.799 64.5388 155.635 64.1721 155.535 63.7121C155.435 63.2454 155.385 62.6721 155.385 61.9921C155.385 61.3054 155.435 60.7321 155.535 60.2721C155.635 59.8121 155.799 59.4454 156.025 59.1721C156.252 58.8988 156.549 58.7054 156.915 58.5921C157.282 58.4721 157.725 58.4121 158.245 58.4121ZM158.245 59.4321C157.852 59.4321 157.542 59.5121 157.315 59.6721C157.095 59.8254 156.939 60.0888 156.845 60.4621C156.752 60.8288 156.705 61.3388 156.705 61.9921C156.705 62.6454 156.752 63.1588 156.845 63.5321C156.939 63.8988 157.095 64.1621 157.315 64.3221C157.542 64.4754 157.852 64.5521 158.245 64.5521C158.645 64.5521 158.955 64.4754 159.175 64.3221C159.402 64.1621 159.562 63.8988 159.655 63.5321C159.749 63.1588 159.795 62.6454 159.795 61.9921C159.795 61.3388 159.749 60.8288 159.655 60.4621C159.562 60.0888 159.402 59.8254 159.175 59.6721C158.955 59.5121 158.645 59.4321 158.245 59.4321Z" fill="#CA4244"/>
<path d="M165.773 58.5221C166.119 58.5221 166.473 58.5221 166.833 58.5221C167.199 58.5221 167.556 58.5288 167.903 58.5421C168.256 58.5554 168.593 58.5754 168.913 58.6021L168.853 59.5321H166.153C165.966 59.5321 165.829 59.5788 165.743 59.6721C165.656 59.7654 165.613 59.9121 165.613 60.1121V63.8721C165.613 64.0721 165.656 64.2188 165.743 64.3121C165.829 64.4054 165.966 64.4521 166.153 64.4521H168.853L168.913 65.3821C168.593 65.4088 168.256 65.4288 167.903 65.4421C167.556 65.4488 167.199 65.4521 166.833 65.4521C166.473 65.4588 166.119 65.4621 165.773 65.4621C165.346 65.4621 165.003 65.3454 164.743 65.1121C164.489 64.8721 164.363 64.5521 164.363 64.1521V59.8321C164.363 59.4321 164.489 59.1154 164.743 58.8821C165.003 58.6421 165.346 58.5221 165.773 58.5221ZM164.533 61.3721H168.473V62.2921H164.533V61.3721Z" fill="#CA4244"/>
<path d="M181.793 58.5421V65.4421H180.593V60.9521C180.593 60.8054 180.6 60.6588 180.613 60.5121C180.626 60.3654 180.643 60.2221 180.663 60.0821H180.603C180.556 60.2221 180.5 60.3654 180.433 60.5121C180.366 60.6521 180.3 60.7888 180.233 60.9221L177.563 65.4421H176.323V58.5421H177.523V62.9721C177.523 63.1188 177.516 63.2688 177.503 63.4221C177.49 63.5754 177.476 63.7254 177.463 63.8721H177.503C177.563 63.7321 177.626 63.5921 177.693 63.4521C177.766 63.3054 177.84 63.1654 177.913 63.0321L180.553 58.5421H181.793Z" fill="#CA4244"/>
<path d="M187.124 58.4621C187.698 58.4621 188.154 58.5154 188.494 58.6221C188.834 58.7221 189.078 58.9021 189.224 59.1621C189.378 59.4221 189.454 59.7888 189.454 60.2621C189.454 60.7554 189.364 61.1321 189.184 61.3921C189.004 61.6521 188.704 61.8021 188.284 61.8421V61.8821C188.804 61.9288 189.164 62.1088 189.364 62.4221C189.564 62.7354 189.664 63.1688 189.664 63.7221C189.664 64.1954 189.588 64.5621 189.434 64.8221C189.281 65.0821 189.041 65.2654 188.714 65.3721C188.388 65.4721 187.958 65.5221 187.424 65.5221C187.078 65.5221 186.758 65.5121 186.464 65.4921C186.171 65.4788 185.898 65.4521 185.644 65.4121C185.391 65.3721 185.141 65.3188 184.894 65.2521L184.994 64.3921C185.321 64.4321 185.671 64.4688 186.044 64.5021C186.418 64.5354 186.804 64.5521 187.204 64.5521C187.504 64.5521 187.738 64.5254 187.904 64.4721C188.078 64.4121 188.201 64.3054 188.274 64.1521C188.348 63.9988 188.384 63.7788 188.384 63.4921C188.384 63.1854 188.344 62.9488 188.264 62.7821C188.191 62.6088 188.064 62.4888 187.884 62.4221C187.704 62.3488 187.458 62.3121 187.144 62.3121H185.884V61.4221H187.144C187.418 61.4154 187.631 61.3854 187.784 61.3321C187.938 61.2721 188.048 61.1721 188.114 61.0321C188.181 60.8854 188.214 60.6821 188.214 60.4221C188.214 60.1554 188.178 59.9488 188.104 59.8021C188.038 59.6554 187.918 59.5554 187.744 59.5021C187.571 59.4488 187.338 59.4221 187.044 59.4221C186.664 59.4221 186.321 59.4354 186.014 59.4621C185.708 59.4888 185.414 59.5154 185.134 59.5421L185.044 58.6421C185.364 58.5821 185.684 58.5388 186.004 58.5121C186.324 58.4788 186.698 58.4621 187.124 58.4621Z" fill="#CA4244"/>
<path d="M198.22 58.5421V65.4421H196.97V59.4621H195.84C195.62 59.4621 195.46 59.5121 195.36 59.6121C195.26 59.7121 195.203 59.8754 195.19 60.1021C195.157 60.5821 195.113 61.0254 195.06 61.4321C195.013 61.8388 194.953 62.2188 194.88 62.5721C194.807 62.9254 194.717 63.2621 194.61 63.5821C194.503 63.9021 194.377 64.2154 194.23 64.5221C194.083 64.8221 193.907 65.1288 193.7 65.4421H192.61C192.937 64.8754 193.193 64.2888 193.38 63.6821C193.567 63.0688 193.707 62.4454 193.8 61.8121C193.9 61.1788 193.973 60.5421 194.02 59.9021C194.04 59.4821 194.18 59.1521 194.44 58.9121C194.707 58.6654 195.06 58.5421 195.5 58.5421H198.22ZM193.36 65.3721L193.25 66.9521H192.36V65.3721H193.36ZM199.1 64.5221V65.4421H192.36V64.5221H199.1ZM199.1 65.3721V66.9521H198.21L198.11 65.3721H199.1Z" fill="#CA4244"/>
<path d="M205.167 58.5421C205.274 58.5421 205.367 58.5721 205.447 58.6321C205.527 58.6921 205.584 58.7721 205.617 58.8721L207.707 65.4421H206.427L204.847 60.1221C204.821 60.0154 204.794 59.9088 204.767 59.8021C204.741 59.6954 204.717 59.5921 204.697 59.4921H204.417C204.397 59.5921 204.374 59.6954 204.347 59.8021C204.321 59.9088 204.291 60.0154 204.257 60.1221L202.687 65.4421H201.407L203.497 58.8721C203.524 58.7721 203.577 58.6921 203.657 58.6321C203.744 58.5721 203.841 58.5421 203.947 58.5421H205.167ZM206.327 62.4921V63.4721H202.777V62.4921H206.327Z" fill="#CA4244"/>
<path d="M211.794 58.5421V65.4421H210.534V58.5421H211.794ZM214.664 61.2721V62.2521H211.714V61.2721H214.664ZM215.804 58.5421V65.4421H214.554V58.5421H215.804Z" fill="#CA4244"/>
<path d="M224.84 58.5421V65.4421H223.64V60.9521C223.64 60.8054 223.647 60.6588 223.66 60.5121C223.673 60.3654 223.69 60.2221 223.71 60.0821H223.65C223.603 60.2221 223.547 60.3654 223.48 60.5121C223.413 60.6521 223.347 60.7888 223.28 60.9221L220.61 65.4421H219.37V58.5421H220.57V62.9721C220.57 63.1188 220.563 63.2688 220.55 63.4221C220.537 63.5754 220.523 63.7254 220.51 63.8721H220.55C220.61 63.7321 220.673 63.5921 220.74 63.4521C220.813 63.3054 220.887 63.1654 220.96 63.0321L223.6 58.5421H224.84Z" fill="#CA4244"/>
<path d="M229.751 58.5221C230.098 58.5221 230.451 58.5221 230.811 58.5221C231.178 58.5221 231.534 58.5288 231.881 58.5421C232.234 58.5554 232.571 58.5754 232.891 58.6021L232.831 59.5321H230.131C229.944 59.5321 229.808 59.5788 229.721 59.6721C229.634 59.7654 229.591 59.9121 229.591 60.1121V63.8721C229.591 64.0721 229.634 64.2188 229.721 64.3121C229.808 64.4054 229.944 64.4521 230.131 64.4521H232.831L232.891 65.3821C232.571 65.4088 232.234 65.4288 231.881 65.4421C231.534 65.4488 231.178 65.4521 230.811 65.4521C230.451 65.4588 230.098 65.4621 229.751 65.4621C229.324 65.4621 228.981 65.3454 228.721 65.1121C228.468 64.8721 228.341 64.5521 228.341 64.1521V59.8321C228.341 59.4321 228.468 59.1154 228.721 58.8821C228.981 58.6421 229.324 58.5221 229.751 58.5221ZM228.511 61.3721H232.451V62.2921H228.511V61.3721Z" fill="#CA4244"/>
<path d="M61.8639 16.2525C64.0769 20.697 65.0828 25.5455 65.0828 30.596C65.0828 48.2727 51.1006 62.7172 33.7988 62.7172C16.5976 62.7172 2.51479 48.1717 2.51479 30.4949C2.51479 25.8485 3.42012 21.303 5.33136 17.0606C1.81065 22.7172 0 29.2828 0 36.0505C0 55.2424 15.2899 71 34 71C52.7101 71 68 55.2424 68 36.0505C68 28.9798 65.8876 22.0101 61.8639 16.2525Z" fill="#CA4244"/>
<path d="M34.1006 59.8889C39.7337 59.8889 45.3669 58.1717 49.9941 54.9394C46.3728 56.6566 42.5503 57.5657 38.6272 57.5657C23.9408 57.5657 12.1716 45.3434 12.1716 30.3939C12.1716 15.3434 24.0414 3.22222 38.6272 3.22222C42.2485 3.22222 45.9704 4.0303 49.1894 5.44444C44.6627 2.51515 39.432 1 34 1C18.2071 1 5.33136 14.2323 5.33136 30.4949C5.43195 46.6566 18.3077 59.8889 34.1006 59.8889Z" fill="#CA4244"/>
<path d="M54.6213 47.3636C58.142 43.8283 60.5562 39.1818 61.361 34.2323C62.6686 25.7475 59.0473 16.7576 52.3077 11.505C48.5858 8.57576 43.9586 6.85859 39.2308 6.65657C32.7929 6.35354 26.355 8.87879 21.7278 13.4242C17.1006 17.9697 14.5858 24.4343 14.5858 30.899C14.5858 38.4747 18.1065 46.2525 24.4438 50.3939C30.5799 54.4343 38.7278 55.5455 45.6686 53.0202C49.1894 51.8081 52.2071 49.8889 54.6213 47.3636ZM27.2604 17.5657C26.6568 19.0808 25.8521 21 25.5503 22.6162C25.4497 23.1212 25.2485 23.6263 25.2485 23.6263C25.2485 23.6263 25.1479 23.6263 25.0473 23.6263C24.2426 23.5253 21.5266 23.1212 20.7219 22.9192C20.3195 22.8182 19.8166 22.7172 19.716 22.7172C19.5148 22.7172 19.4142 22.7172 19.4142 22.6162C19.3136 22.4141 20.3195 20.596 21.3254 19.2828C23.1361 16.7576 25.3491 14.9394 28.0651 13.4242C28.8698 13.0202 30.1775 12.3131 30.1775 12.4141C30.1775 12.4141 30.1775 12.5152 30.0769 12.6162C28.9704 14.3333 28.0651 15.8485 27.2604 17.5657ZM27.5621 26.8586C27.5621 26.8586 28.2663 26.8586 29.071 26.9596C30.7811 27.1616 33.5976 27.2626 34.8047 27.2626C35.4083 27.2626 35.7101 27.2626 35.7101 27.3636C35.8107 27.4646 35.8107 37.3636 35.7101 37.3636C35.6095 37.3636 34.503 37.3636 33.0947 37.3636C31.787 37.3636 30.2781 37.4646 29.6746 37.4646C29.1716 37.4646 28.568 37.4646 28.2663 37.4646C27.6627 37.5657 27.6627 37.5657 27.5621 36.7576C27.2604 34.2323 27.1598 32.1111 27.2604 29.9899C27.4615 28.3737 27.4615 26.9596 27.5621 26.8586ZM49.6923 26.9596C49.6923 26.7576 49.6923 26.6566 49.6923 26.4545C51.9053 26.2525 54.0178 25.8485 56.1302 25.2424C57.3373 29.6869 57.1361 34.5354 55.6272 38.9798C54.2189 38.6768 52.9112 38.3737 51.503 38.0707C50.7988 37.8687 49.4911 37.6667 49.4911 37.6667C49.4911 37.6667 49.5917 36.7576 49.5917 36.5556C49.5917 36.1515 49.6923 35.7475 49.6923 35.3434C49.8935 32.5152 49.8935 29.7879 49.6923 26.9596ZM51.2012 17.3636C52.7101 18.8788 53.9172 20.697 54.9231 22.5152C54.9231 22.5152 54.9231 22.5152 54.9231 22.6162C54.6213 22.8182 52.2071 23.3232 50.6982 23.5253C49.1894 23.7273 49.2899 23.7273 49.2899 23.3232C49.1894 22.8182 48.787 21.101 48.5858 20.3939C47.7811 17.7677 46.9763 15.7475 45.7692 13.9293C45.5681 13.6263 45.4675 13.3232 45.3669 13.2222C47.4793 14.2323 49.4911 15.6465 51.2012 17.3636ZM46.2722 23.8283C46.1716 23.9293 45.1657 24.0303 43.4556 24.1313C41.7456 24.2323 38.7278 24.3333 38.8284 24.2323C38.7278 24.1313 38.7278 21.303 38.7278 17.7677V11.404H38.8284C39.0296 11.404 39.8343 11.8081 40.3373 12.2121C42.6509 13.8283 44.7633 17.4646 45.9704 22.2121C46.2722 23.3232 46.3728 23.7273 46.2722 23.8283ZM38.5266 32.1111C38.5266 30.4949 38.5266 28.7778 38.5266 27.1616C41.142 27.1616 43.7574 27.0606 46.2722 26.8586C46.3728 26.8586 46.574 26.8586 46.6746 26.9596C46.7752 27.0606 46.7752 27.1616 46.7752 27.2626C47.0769 29.9899 47.0769 32.7172 46.7752 35.4444C46.6746 36.0505 46.6746 36.6566 46.4734 37.1616C46.4734 37.2626 46.4734 37.2626 46.3728 37.3636C46.2722 37.3636 46.2722 37.3636 46.1716 37.3636C43.858 37.2626 41.5444 37.2626 39.2308 37.1616C39.0296 37.1616 38.3254 37.1616 38.3254 37.1616C38.3254 37.1616 38.3254 36.2525 38.3254 36.0505C38.5266 34.7374 38.5266 33.4242 38.5266 32.1111ZM48.787 41.202L48.8876 40.798H49.3905C50.3965 40.798 54.1183 41.5051 54.2189 41.7071C54.3195 41.8081 53.9172 42.3131 53.3136 43.2222C52.6095 44.2323 52.1065 44.8384 51.2012 45.7475C49.6923 47.3636 47.8817 48.6768 46.071 49.6869C45.2663 50.0909 45.1657 50.1919 45.1657 50.0909C45.1657 50.0909 45.3669 49.6869 45.568 49.3838C46.8757 47.2626 47.9823 44.5354 48.787 41.202ZM18.9112 38.7778C18.9112 38.7778 18.6095 38.2727 18.5089 37.6667C17.6036 34.7374 17.4024 31.404 17.8047 28.4747C18.1065 26.8586 18.3077 25.6465 18.5089 25.5455C18.6095 25.4444 18.9112 25.5455 19.3136 25.6465C20.4201 25.9495 22.3314 26.1515 24.142 26.4545C24.4438 26.4545 24.8462 26.5556 24.8462 26.5556C24.8462 26.5556 24.8462 27.1616 24.7456 27.8687C24.5444 28.9798 24.5444 29.5859 24.5444 31.5051C24.5444 34.0303 24.645 34.9394 24.8462 36.6566C24.8462 37.0606 24.9467 37.3636 24.9467 37.5657V37.8687L24.5444 37.9697C22.9349 38.1717 21.1243 38.3737 19.8166 38.6768C19.3136 38.7778 18.9112 38.7778 18.9112 38.7778ZM30.2781 50.4949C30.0769 50.4949 29.071 50.0909 28.3669 49.6869C25.1479 47.9697 22.5325 45.5455 20.6213 42.4141C20.2189 41.7071 20.1183 41.6061 20.3195 41.505C20.6213 41.303 24.645 40.697 25.3491 40.697H25.7515L25.9527 41.404C26.4556 43.3232 26.9586 44.6364 27.7633 46.2525C28.4675 47.6667 28.9704 48.6768 29.7751 49.6869C29.9763 49.9899 30.1775 50.2929 30.2781 50.4949C30.3787 50.4949 30.3787 50.4949 30.2781 50.4949ZM35.8106 51.5051C35.5089 51.6061 34.4024 50.899 33.6982 50.2929C32.1894 49.0808 30.7811 46.8586 29.6746 44.3333C29.071 42.9192 28.3669 40.596 28.4675 40.4949C28.568 40.3939 30.7811 40.2929 33.2959 40.1919C35.2071 40.0909 35.6095 40.0909 35.7101 40.1919C35.8107 40.2929 35.8106 40.899 35.8106 45.8485C35.8106 50.4949 35.8106 51.404 35.8106 51.5051ZM34.6036 24.3333C32.6923 24.3333 28.1657 24.0303 28.1657 23.9293C28.0651 23.8283 28.4675 22.0101 28.9704 20.697C30.2781 16.6566 32.1893 13.7273 34.3018 12.2121C35.0059 11.8081 35.7101 11.505 35.8106 11.6061C35.9112 11.6061 35.9112 13.5253 35.9112 17.9697V24.3333H34.6036ZM39.1302 51.5051C38.929 51.6061 38.7278 51.7071 38.6272 51.7071C38.5266 51.7071 38.5266 50.798 38.5266 46.0505C38.5266 40.697 38.5266 40.2929 38.6272 40.2929C38.8284 40.1919 43.1538 40.3939 44.6627 40.4949C45.2663 40.596 45.8698 40.697 45.8698 40.697C45.9704 40.798 45.3669 42.9192 44.8639 44.2323C43.4556 47.8687 41.3432 50.596 39.1302 51.5051Z" fill="#CA4244"/>
</svg>
