<svg width="21" height="24" viewBox="0 0 21 24" fill="none" xmlns="http://www.w3.org/2000/svg">
<g clip-path="url(#clip0_439_6508)">
<path d="M14.0625 13.5H15.9375C16.2469 13.5 16.5 13.2469 16.5 12.9375V11.0625C16.5 10.7531 16.2469 10.5 15.9375 10.5H14.0625C13.7531 10.5 13.5 10.7531 13.5 11.0625V12.9375C13.5 13.2469 13.7531 13.5 14.0625 13.5ZM9 12.9375V11.0625C9 10.7531 9.25313 10.5 9.5625 10.5H11.4375C11.7469 10.5 12 10.7531 12 11.0625V12.9375C12 13.2469 11.7469 13.5 11.4375 13.5H9.5625C9.25313 13.5 9 13.2469 9 12.9375ZM4.5 12.9375V11.0625C4.5 10.7531 4.75312 10.5 5.0625 10.5H6.9375C7.24687 10.5 7.5 10.7531 7.5 11.0625V12.9375C7.5 13.2469 7.24687 13.5 6.9375 13.5H5.0625C4.75312 13.5 4.5 13.2469 4.5 12.9375ZM9 17.4375V15.5625C9 15.2531 9.25313 15 9.5625 15H11.4375C11.7469 15 12 15.2531 12 15.5625V17.4375C12 17.7469 11.7469 18 11.4375 18H9.5625C9.25313 18 9 17.7469 9 17.4375ZM13.5 17.4375V15.5625C13.5 15.2531 13.7531 15 14.0625 15H15.9375C16.2469 15 16.5 15.2531 16.5 15.5625V17.4375C16.5 17.7469 16.2469 18 15.9375 18H14.0625C13.7531 18 13.5 17.7469 13.5 17.4375ZM4.5 17.4375V15.5625C4.5 15.2531 4.75312 15 5.0625 15H6.9375C7.24687 15 7.5 15.2531 7.5 15.5625V17.4375C7.5 17.7469 7.24687 18 6.9375 18H5.0625C4.75312 18 4.5 17.7469 4.5 17.4375ZM0 5.25V21.75C0 22.9922 1.00781 24 2.25 24H18.75C19.9922 24 21 22.9922 21 21.75V5.25C21 4.00781 19.9922 3 18.75 3H16.5V0.5625C16.5 0.253125 16.2469 0 15.9375 0H14.0625C13.7531 0 13.5 0.253125 13.5 0.5625V3H7.5V0.5625C7.5 0.253125 7.24687 0 6.9375 0H5.0625C4.75312 0 4.5 0.253125 4.5 0.5625V3H2.25C1.00781 3 0 4.00781 0 5.25ZM2.25 21.4688V7.5H18.75V21.4688C18.75 21.6234 18.6234 21.75 18.4688 21.75H2.53125C2.37656 21.75 2.25 21.6234 2.25 21.4688Z" fill="#CA4244"/>
</g>
<defs>
<clipPath id="clip0_439_6508">
<rect width="21" height="24" fill="white" transform="matrix(-1 0 0 1 21 0)"/>
</clipPath>
</defs>
</svg>
