<svg width="75" height="75" viewBox="0 0 75 75" fill="none" xmlns="http://www.w3.org/2000/svg">
<g clip-path="url(#clip0_434_5566)">
<path d="M37.5 75C58.2107 75 75 58.2107 75 37.5C75 16.7893 58.2107 0 37.5 0C16.7893 0 0 16.7893 0 37.5C0 58.2107 16.7893 75 37.5 75Z" fill="#039BE5"/>
<path d="M17.1576 36.6877L53.3139 22.747C54.992 22.1408 56.4576 23.1564 55.9139 25.6939L55.917 25.6908L49.7608 54.6939C49.3045 56.7502 48.0826 57.2502 46.3733 56.2814L36.9983 49.372L32.4764 53.7283C31.9764 54.2283 31.5545 54.6502 30.5858 54.6502L31.2514 45.1095L48.6264 29.4127C49.3826 28.747 48.4576 28.372 47.4608 29.0345L25.9889 42.5533L16.7326 39.6658C14.7233 39.0283 14.6795 37.6564 17.1576 36.6877Z" fill="white"/>
</g>
<defs>
<clipPath id="clip0_434_5566">
<rect width="75" height="75" fill="white"/>
</clipPath>
</defs>
</svg>
