<svg width="75" height="75" viewBox="0 0 75 75" fill="none" xmlns="http://www.w3.org/2000/svg">
<g clip-path="url(#clip0_434_5679)">
<path d="M72.9948 35.856C73.0013 35.856 73.0061 35.856 73.0126 35.856C73.4649 35.856 73.8962 35.6663 74.2026 35.3339C74.5139 34.9967 74.6679 34.5444 74.6273 34.0872C72.9997 16.1842 58.8254 2.00506 40.9207 0.374121C40.4668 0.338454 40.0096 0.485985 39.6724 0.798879C39.3352 1.11015 39.1471 1.5495 39.152 2.0083C39.4341 25.8012 42.5727 35.5236 72.9948 35.856ZM72.9948 39.1438C42.5727 39.4761 39.4357 49.1985 39.1536 72.9914C39.1487 73.4502 39.3368 73.8896 39.674 74.2009C39.9756 74.4781 40.3695 74.6321 40.7748 74.6321C40.8235 74.6321 40.8737 74.6305 40.9223 74.6256C58.827 72.9947 73.0013 58.8172 74.6273 40.9125C74.6679 40.4553 74.5155 40.003 74.2026 39.6658C73.8897 39.3286 73.4536 39.1616 72.9948 39.1438ZM33.9706 0.382227C16.1227 2.06018 1.9938 16.2361 0.374208 34.0905C0.333677 34.5476 0.486071 35 0.798965 35.3372C1.10537 35.6695 1.53824 35.8576 1.98894 35.8576C1.99542 35.8576 2.0019 35.8576 2.00839 35.8576C32.3299 35.509 35.4605 25.7915 35.7458 2.01479C35.7507 1.55598 35.561 1.11502 35.2238 0.803742C34.8833 0.49247 34.4278 0.340076 33.9706 0.382227ZM2.00677 39.1422C1.50257 39.0854 1.107 39.3254 0.797344 39.6626C0.486072 39.9998 0.332056 40.4521 0.372587 40.9093C1.99218 58.7637 16.1227 72.9396 33.9706 74.6175C34.0208 74.6224 34.0727 74.624 34.123 74.624C34.5283 74.624 34.9206 74.4716 35.2222 74.1944C35.5594 73.8831 35.7491 73.4422 35.7442 72.9833C35.4589 49.2083 32.3299 39.4907 2.00677 39.1422Z" fill="black"/>
</g>
<defs>
<clipPath id="clip0_434_5679">
<rect width="75" height="75" fill="white"/>
</clipPath>
</defs>
</svg>
