<svg width="78" height="80" viewBox="0 0 78 80" fill="none" xmlns="http://www.w3.org/2000/svg">
<path d="M70.7016 17.4315C73.2308 22.5108 74.3804 28.0519 74.3804 33.824C74.3804 54.026 58.4007 70.5339 38.6272 70.5339C18.9687 70.5339 2.87405 53.9105 2.87405 33.7085C2.87405 28.3983 3.90871 23.2035 6.09298 18.355C2.06932 24.8196 0 32.3232 0 40.0577C0 61.9913 17.4742 80 38.8571 80C60.2401 80 77.7143 61.9913 77.7143 40.0577C77.7143 31.9769 75.3001 24.0115 70.7016 17.4315Z" fill="#F1F1F1"/>
<path d="M38.9721 67.3016C45.41 67.3016 51.8479 65.3391 57.1361 61.645C52.9975 63.6075 48.6289 64.6465 44.1454 64.6465C27.361 64.6465 13.9104 50.6782 13.9104 33.5931C13.9104 16.3925 27.4759 2.53968 44.1454 2.53968C48.284 2.53968 52.5376 3.4632 56.2164 5.07936C51.0431 1.7316 45.0651 0 38.8571 0C20.8081 0 6.09298 15.1227 6.09298 33.7085C6.20795 52.1789 20.9231 67.3016 38.9721 67.3016Z" fill="#F1F1F1"/>
<path d="M62.4244 52.987C66.448 48.9466 69.2071 43.6364 70.1268 37.9798C71.6213 28.2828 67.4827 18.0087 59.7802 12.0058C55.5266 8.65801 50.2384 6.69553 44.8352 6.46465C37.4776 6.11833 30.12 9.00433 24.8318 14.1991C19.5435 19.3939 16.6695 26.7821 16.6695 34.1703C16.6695 42.8283 20.6932 51.7172 27.9358 56.4502C34.9484 61.0678 44.2604 62.3377 52.1927 59.4517C56.2164 58.0664 59.6653 55.873 62.4244 52.987ZM31.1547 18.9322C30.4649 20.6638 29.5452 22.8571 29.2003 24.7042C29.0854 25.2814 28.8555 25.8586 28.8555 25.8586C28.8555 25.8586 28.7405 25.8586 28.6255 25.8586C27.7058 25.7431 24.6019 25.2814 23.6822 25.0505C23.2223 24.9351 22.6475 24.8196 22.5325 24.8196C22.3026 24.8196 22.1877 24.8196 22.1877 24.7042C22.0727 24.4733 23.2223 22.3954 24.3719 20.8947C26.4413 18.0087 28.9704 15.9307 32.0744 14.1991C32.9941 13.7374 34.4886 12.9293 34.4886 13.0447C34.4886 13.0447 34.4886 13.1602 34.3736 13.2756C33.109 15.2381 32.0744 16.9697 31.1547 18.9322ZM31.4996 29.5527C31.4996 29.5527 32.3043 29.5527 33.224 29.6681C35.1784 29.899 38.3973 30.0144 39.7768 30.0144C40.4666 30.0144 40.8115 30.0144 40.8115 30.1299C40.9265 30.2453 40.9265 41.5584 40.8115 41.5584C40.6965 41.5584 39.432 41.5584 37.8225 41.5584C36.328 41.5584 34.6036 41.6739 33.9138 41.6739C33.339 41.6739 32.6492 41.6739 32.3043 41.6739C31.6145 41.7893 31.6145 41.7893 31.4996 40.8658C31.1547 37.9798 31.0397 35.5556 31.1547 33.1313C31.3846 31.2843 31.3846 29.6681 31.4996 29.5527ZM56.7912 29.6681C56.7912 29.4372 56.7912 29.3218 56.7912 29.0909C59.3204 28.86 61.7346 28.3983 64.1488 27.7056C65.5283 32.785 65.2984 38.3261 63.574 43.4055C61.9645 43.0592 60.47 42.7128 58.8605 42.3665C58.0558 42.1356 56.5613 41.9048 56.5613 41.9048C56.5613 41.9048 56.6763 40.8658 56.6763 40.6349C56.6763 40.1732 56.7912 39.7114 56.7912 39.2496C57.0211 36.0173 57.0211 32.9004 56.7912 29.6681ZM58.5156 18.7013C60.2401 20.4329 61.6196 22.5108 62.7692 24.5887C62.7692 24.5887 62.7692 24.5887 62.7692 24.7042C62.4243 24.9351 59.6653 25.5123 57.9408 25.7431C56.2164 25.974 56.3314 25.974 56.3314 25.5123C56.2164 24.9351 55.7566 22.9726 55.5266 22.1645C54.6069 19.1631 53.6872 16.8543 52.3077 14.7763C52.0778 14.43 51.9628 14.0837 51.8478 13.9683C54.262 15.1227 56.5613 16.7388 58.5156 18.7013ZM52.8825 26.0895C52.7675 26.2049 51.6179 26.3203 49.6636 26.4358C47.7092 26.5512 44.2604 26.6667 44.3753 26.5512C44.2604 26.4358 44.2604 23.2035 44.2604 19.1631V11.8903H44.3753C44.6052 11.8903 45.5249 12.3521 46.0997 12.8139C48.7439 14.6609 51.1581 18.8167 52.5376 24.2424C52.8825 25.5123 52.9975 25.974 52.8825 26.0895ZM44.0304 35.5556C44.0304 33.7085 44.0304 31.746 44.0304 29.899C47.0194 29.899 50.0085 29.7836 52.8825 29.5527C52.9975 29.5527 53.2274 29.5527 53.3424 29.6681C53.4573 29.7836 53.4573 29.899 53.4573 30.0144C53.8022 33.1313 53.8022 36.2482 53.4573 39.3651C53.3424 40.0577 53.3424 40.7504 53.1124 41.3276C53.1124 41.443 53.1124 41.443 52.9975 41.5584C52.8825 41.5584 52.8825 41.5584 52.7675 41.5584C50.1234 41.443 47.4793 41.443 44.8352 41.3276C44.6052 41.3276 43.8005 41.3276 43.8005 41.3276C43.8005 41.3276 43.8005 40.2886 43.8005 40.0577C44.0304 38.557 44.0304 37.0563 44.0304 35.5556ZM55.7566 45.9452L55.8715 45.4834H56.4463C57.5959 45.4834 61.8495 46.2915 61.9645 46.5224C62.0795 46.6378 61.6196 47.215 60.9298 48.254C60.1251 49.4084 59.5503 50.101 58.5156 51.14C56.7912 52.987 54.7219 54.4877 52.6526 55.6421C51.7329 56.1039 51.6179 56.2193 51.6179 56.1039C51.6179 56.1039 51.8478 55.6421 52.0778 55.2958C53.5723 52.8716 54.8369 49.7547 55.7566 45.9452ZM21.6128 43.1746C21.6128 43.1746 21.268 42.5974 21.153 41.9048C20.1183 38.557 19.8884 34.7475 20.3483 31.3997C20.6932 29.5527 20.9231 28.1674 21.153 28.0519C21.268 27.9365 21.6129 28.0519 22.0727 28.1674C23.3373 28.5137 25.5216 28.7446 27.5909 29.0909C27.9358 29.0909 28.3956 29.2064 28.3956 29.2064C28.3956 29.2064 28.3956 29.899 28.2806 30.7071C28.0507 31.9769 28.0507 32.6696 28.0507 34.8629C28.0507 37.7489 28.1657 38.7879 28.3956 40.7504C28.3956 41.2121 28.5106 41.5584 28.5106 41.7893V42.1356L28.0507 42.2511C26.2113 42.482 24.142 42.7128 22.6475 43.0592C22.0727 43.1746 21.6128 43.1746 21.6128 43.1746ZM34.6036 56.5657C34.3736 56.5657 33.224 56.1039 32.4193 55.6421C28.7405 53.6797 25.7515 50.9091 23.5672 47.3304C23.1074 46.5224 22.9924 46.4069 23.2223 46.2915C23.5672 46.0606 28.1657 45.368 28.9704 45.368H29.4303L29.6602 46.176C30.235 48.3694 30.8098 49.8701 31.7295 51.7172C32.5342 53.3333 33.109 54.4877 34.0287 55.6421C34.2587 55.9885 34.4886 56.3348 34.6036 56.5657C34.7185 56.5657 34.7185 56.5657 34.6036 56.5657ZM40.9265 57.7201C40.5816 57.8355 39.317 57.0274 38.5123 56.3348C36.7878 54.9495 35.1784 52.4098 33.9138 49.5238C33.224 47.9076 32.4193 45.2525 32.5342 45.1371C32.6492 45.0216 35.1784 44.9062 38.0524 44.7908C40.2367 44.6753 40.6965 44.6753 40.8115 44.7908C40.9265 44.9062 40.9265 45.5988 40.9265 51.2554C40.9265 56.5657 40.9265 57.6046 40.9265 57.7201ZM39.5469 26.6667C37.3626 26.6667 32.1894 26.3203 32.1894 26.2049C32.0744 26.0895 32.5342 24.0115 33.109 22.5108C34.6036 17.8932 36.7878 14.5455 39.202 12.8139C40.0068 12.3521 40.8115 12.0058 40.9265 12.1212C41.0414 12.1212 41.0414 14.3146 41.0414 19.3939V26.6667H39.5469ZM44.7202 57.7201C44.4903 57.8355 44.2604 57.9509 44.1454 57.9509C44.0304 57.9509 44.0304 56.912 44.0304 51.4863C44.0304 45.368 44.0304 44.9062 44.1454 44.9062C44.3753 44.7908 49.3187 45.0216 51.0431 45.1371C51.7329 45.2525 52.4227 45.368 52.4227 45.368C52.5376 45.4834 51.8478 47.9076 51.273 49.4084C49.6636 53.5642 47.2494 56.6811 44.7202 57.7201Z" fill="#F1F1F1"/>
</svg>
