<svg width="228" height="14" viewBox="0 0 228 14" fill="none" xmlns="http://www.w3.org/2000/svg">
<g clip-path="url(#clip0_44_1205)">
<line y1="-2.5" x2="20" y2="-2.5" transform="matrix(-0.707107 0.707107 -1 -3.09086e-08 0.14209 0)" stroke="#CA4244" stroke-width="5"/>
<line y1="-2.5" x2="20" y2="-2.5" transform="matrix(-0.707107 0.707107 -1 -3.09086e-08 12.1421 0)" stroke="#CA4244" stroke-width="5"/>
<line y1="-2.5" x2="20" y2="-2.5" transform="matrix(-0.707107 0.707107 -1 -3.09086e-08 24.1421 0)" stroke="#CA4244" stroke-width="5"/>
<line y1="-2.5" x2="20" y2="-2.5" transform="matrix(-0.707107 0.707107 -1 -3.09086e-08 36.1421 0)" stroke="#CA4244" stroke-width="5"/>
<line y1="-2.5" x2="20" y2="-2.5" transform="matrix(-0.707107 0.707107 -1 -3.09086e-08 48.1421 0)" stroke="#CA4244" stroke-width="5"/>
<line y1="-2.5" x2="20" y2="-2.5" transform="matrix(-0.707107 0.707107 -1 -3.09086e-08 60.1421 0)" stroke="#CA4244" stroke-width="5"/>
<line y1="-2.5" x2="20" y2="-2.5" transform="matrix(-0.707107 0.707107 -1 -3.09086e-08 72.1421 0)" stroke="#CA4244" stroke-width="5"/>
<line y1="-2.5" x2="20" y2="-2.5" transform="matrix(-0.707107 0.707107 -1 -3.09086e-08 84.1421 0)" stroke="#CA4244" stroke-width="5"/>
<line y1="-2.5" x2="20" y2="-2.5" transform="matrix(-0.707107 0.707107 -1 -3.09086e-08 96.1421 0)" stroke="#CA4244" stroke-width="5"/>
<line y1="-2.5" x2="20" y2="-2.5" transform="matrix(-0.707107 0.707107 -1 -3.09086e-08 108.142 0)" stroke="#CA4244" stroke-width="5"/>
<line y1="-2.5" x2="20" y2="-2.5" transform="matrix(-0.707107 0.707107 -1 -3.09086e-08 120.142 0)" stroke="#CA4244" stroke-width="5"/>
<line y1="-2.5" x2="20" y2="-2.5" transform="matrix(-0.707107 0.707107 -1 -3.09086e-08 132.142 0)" stroke="#CA4244" stroke-width="5"/>
<line y1="-2.5" x2="20" y2="-2.5" transform="matrix(-0.707107 0.707107 -1 -3.09086e-08 144.142 0)" stroke="#CA4244" stroke-width="5"/>
<line y1="-2.5" x2="20" y2="-2.5" transform="matrix(-0.707107 0.707107 -1 -3.09086e-08 156.142 0)" stroke="#CA4244" stroke-width="5"/>
<line y1="-2.5" x2="20" y2="-2.5" transform="matrix(-0.707107 0.707107 -1 -3.09086e-08 168.142 0)" stroke="#CA4244" stroke-width="5"/>
<line y1="-2.5" x2="20" y2="-2.5" transform="matrix(-0.707107 0.707107 -1 -3.09086e-08 180.142 0)" stroke="#CA4244" stroke-width="5"/>
<line y1="-2.5" x2="20" y2="-2.5" transform="matrix(-0.707107 0.707107 -1 -3.09086e-08 192.142 0)" stroke="#CA4244" stroke-width="5"/>
<line y1="-2.5" x2="20" y2="-2.5" transform="matrix(-0.707107 0.707107 -1 -3.09086e-08 204.142 0)" stroke="#CA4244" stroke-width="5"/>
<line y1="-2.5" x2="20" y2="-2.5" transform="matrix(-0.707107 0.707107 -1 -3.09086e-08 216.142 0)" stroke="#CA4244" stroke-width="5"/>
<line y1="-2.5" x2="20" y2="-2.5" transform="matrix(-0.707107 0.707107 -1 -3.09086e-08 228.142 0)" stroke="#CA4244" stroke-width="5"/>
<line y1="-2.5" x2="20" y2="-2.5" transform="matrix(-0.707107 0.707107 -1 -3.09086e-08 240.142 0)" stroke="#CA4244" stroke-width="5"/>
</g>
<defs>
<clipPath id="clip0_44_1205">
<rect width="228" height="14" fill="white"/>
</clipPath>
</defs>
</svg>
