<svg width="52" height="52" viewBox="0 0 52 52" fill="none" xmlns="http://www.w3.org/2000/svg">
<g clip-path="url(#clip0_585_384)">
<path d="M26 52C40.3594 52 52 40.3594 52 26C52 11.6406 40.3594 0 26 0C11.6406 0 0 11.6406 0 26C0 40.3594 11.6406 52 26 52Z" fill="#FF9800"/>
<path d="M25.9994 12.3154C24.634 12.3154 23.2992 12.7203 22.1639 13.4789C21.0286 14.2375 20.1437 15.3157 19.6212 16.5772C19.0987 17.8387 18.962 19.2268 19.2284 20.566C19.4947 21.9051 20.1523 23.1353 21.1177 24.1008C22.0832 25.0663 23.3134 25.7238 24.6525 25.9901C25.9917 26.2565 27.3798 26.1198 28.6413 25.5973C29.9028 25.0748 30.981 24.1899 31.7396 23.0546C32.4982 21.9193 32.9031 20.5845 32.9031 19.2191C32.9035 18.3124 32.7253 17.4145 32.3785 16.5767C32.0317 15.7389 31.5232 14.9776 30.882 14.3365C30.2409 13.6953 29.4796 13.1868 28.6418 12.84C27.8041 12.4932 26.9061 12.315 25.9994 12.3154ZM25.9994 22.6607C25.3187 22.6607 24.6533 22.4588 24.0874 22.0807C23.5214 21.7025 23.0803 21.165 22.8198 20.5361C22.5593 19.9073 22.4911 19.2153 22.6239 18.5477C22.7567 17.8801 23.0845 17.2669 23.5658 16.7856C24.0471 16.3042 24.6604 15.9765 25.328 15.8437C25.9956 15.7109 26.6876 15.779 27.3164 16.0395C27.9453 16.3 28.4828 16.7411 28.861 17.3071C29.2391 17.873 29.441 18.5384 29.441 19.2191C29.4414 19.6712 29.3527 20.1189 29.1799 20.5367C29.0071 20.9544 28.7536 21.334 28.434 21.6537C28.1143 21.9734 27.7347 22.2268 27.317 22.3996C26.8992 22.5724 26.4515 22.6611 25.9994 22.6607Z" fill="white"/>
<path d="M36.1745 27.18C36.0242 26.9116 35.8225 26.6755 35.5808 26.4851C35.3391 26.2948 35.0623 26.154 34.7662 26.0707C34.47 25.9875 34.1604 25.9634 33.8549 26C33.5495 26.0365 33.2543 26.1329 32.9861 26.2837C28.2856 28.9179 23.7151 28.9179 19.0145 26.2837C18.745 26.1332 18.4484 26.0372 18.1418 26.0014C17.8352 25.9655 17.5245 25.9903 17.2274 26.0745C16.9304 26.1587 16.6529 26.3005 16.4107 26.492C16.1685 26.6834 15.9663 26.9207 15.8158 27.1903C15.6653 27.4598 15.5694 27.7564 15.5335 28.063C15.4976 28.3696 15.5225 28.6803 15.6067 28.9774C15.7767 29.5772 16.178 30.085 16.7224 30.3889C18.2645 31.2641 19.9119 31.9389 21.6248 32.3971L18.2995 35.7224C17.8627 36.1593 17.6173 36.7518 17.6173 37.3696C17.6173 37.9874 17.8627 38.5799 18.2995 39.0168C18.7364 39.4537 19.329 39.6991 19.9468 39.6991C20.5646 39.6991 21.1571 39.4537 21.594 39.0168L26.0003 34.5934L30.4066 38.9997C30.8435 39.4366 31.4361 39.682 32.0539 39.682C32.6717 39.682 33.2642 39.4366 33.7011 38.9997C34.1379 38.5628 34.3833 37.9703 34.3833 37.3525C34.3833 36.7347 34.1379 36.1422 33.7011 35.7053L30.3758 32.38C32.0887 31.9218 33.7362 31.247 35.2782 30.3718C35.5471 30.2215 35.7836 30.0196 35.9742 29.7777C36.1649 29.5358 36.3059 29.2586 36.3891 28.962C36.4724 28.6655 36.4963 28.3554 36.4595 28.0496C36.4227 27.7438 36.3258 27.4483 36.1745 27.18Z" fill="white"/>
</g>
<defs>
<clipPath id="clip0_585_384">
<rect width="52" height="52" fill="white"/>
</clipPath>
</defs>
</svg>
