<svg width="52" height="52" viewBox="0 0 52 52" fill="none" xmlns="http://www.w3.org/2000/svg">
<g clip-path="url(#clip0_585_374)">
<path d="M26 52C40.3594 52 52 40.3594 52 26C52 11.6406 40.3594 0 26 0C11.6406 0 0 11.6406 0 26C0 40.3594 11.6406 52 26 52Z" fill="#039BE5"/>
<path d="M11.8963 25.4371L36.9646 15.7716C38.1281 15.3513 39.1443 16.0554 38.7673 17.8148L38.7694 17.8126L34.5011 37.9215C34.1848 39.3471 33.3376 39.6938 32.1524 39.0221L25.6524 34.2316L22.5173 37.252C22.1706 37.5986 21.8781 37.8911 21.2064 37.8911L21.6679 31.2763L33.7146 20.3931C34.2389 19.9316 33.5976 19.6716 32.9064 20.131L18.0193 29.5039L11.6016 27.5019C10.2084 27.0599 10.1781 26.1088 11.8963 25.4371Z" fill="white"/>
</g>
<defs>
<clipPath id="clip0_585_374">
<rect width="52" height="52" fill="white"/>
</clipPath>
</defs>
</svg>
