<svg width="51" height="52" viewBox="0 0 51 52" fill="none" xmlns="http://www.w3.org/2000/svg">
<g clip-path="url(#clip0_585_370)">
<path d="M25.4998 51.9995C39.5829 51.9995 50.9995 40.359 50.9995 25.9998C50.9995 11.6405 39.5829 0 25.4998 0C11.4166 0 0 11.6405 0 25.9998C0 40.359 11.4166 51.9995 25.4998 51.9995Z" fill="#55ACEE"/>
<path d="M41.1189 18.6848C40.0064 19.1874 38.8263 19.5169 37.6179 19.6623C38.8909 18.8861 39.8436 17.6643 40.2984 16.2247C39.102 16.9486 37.7929 17.4585 36.4279 17.7324C35.8574 17.1121 35.168 16.6179 34.4026 16.2804C33.6371 15.9429 32.8117 15.7694 31.9777 15.7705C28.6122 15.7705 25.8826 18.5537 25.8826 21.9852C25.8826 22.4723 25.9367 22.9464 26.0412 23.4016C20.9756 23.1425 16.4841 20.6685 13.4777 16.9074C12.9356 17.8559 12.6507 18.9343 12.6522 20.0321C12.6522 22.1877 13.7291 24.0907 15.3637 25.2049C14.3957 25.1745 13.449 24.9076 12.6031 24.4268L12.6027 24.5055C12.6027 27.5167 14.7045 30.0283 17.4923 30.5988C16.9691 30.7443 16.4292 30.8177 15.8868 30.8171C15.4932 30.8171 15.1118 30.7786 14.74 30.7063C15.5155 33.1748 17.766 34.9716 20.4338 35.0222C18.2746 36.7501 15.608 37.6871 12.8631 37.6825C12.3722 37.6825 11.8858 37.6533 11.4099 37.5953C14.1963 39.4219 17.4398 40.3914 20.7524 40.3877C31.9636 40.3877 38.0947 30.9181 38.0947 22.705C38.0947 22.4357 38.0888 22.1673 38.077 21.9013C39.2708 21.0224 40.3009 19.9332 41.1189 18.6848Z" fill="#F1F2F2"/>
</g>
<defs>
<clipPath id="clip0_585_370">
<rect width="51" height="52" fill="white"/>
</clipPath>
</defs>
</svg>
