<svg width="51" height="52" viewBox="0 0 51 52" fill="none" xmlns="http://www.w3.org/2000/svg">
<g clip-path="url(#clip0_585_378)">
<path d="M25.5 52C39.5833 52 51 40.3594 51 26C51 11.6406 39.5833 0 25.5 0C11.4167 0 0 11.6406 0 26C0 40.3594 11.4167 52 25.5 52Z" fill="#4065D6"/>
<path d="M37.2603 33.4308C36.663 33.5163 33.7607 33.4308 33.6097 33.4308C32.8594 33.4385 32.1362 33.1448 31.5966 32.6131C30.9826 32.011 30.4289 31.3473 29.8418 30.7213C29.6635 30.5304 29.4717 30.3532 29.268 30.191C28.7882 29.8181 28.3151 29.9036 28.0903 30.4784C27.9143 31.1013 27.793 31.739 27.7279 32.3839C27.7175 32.6556 27.6017 32.9119 27.4061 33.0966C27.2104 33.2813 26.9509 33.3794 26.6845 33.3692C26.2885 33.3897 25.8926 33.4 25.5001 33.3897C24.072 33.3821 22.6659 33.0305 21.3966 32.3634C20.0262 31.5826 18.8317 30.5174 17.8903 29.2365C16.3841 27.2086 15.0824 25.0309 14.0049 22.7365C13.9479 22.6202 12.8172 20.1673 12.7903 20.0544C12.7202 19.8937 12.7135 19.7116 12.7716 19.546C12.8297 19.3803 12.9482 19.2439 13.1024 19.165C13.3037 19.0863 17.0314 19.165 17.0918 19.165C17.3693 19.1623 17.6405 19.2501 17.8656 19.4157C18.0908 19.5812 18.2582 19.8158 18.3433 20.0852C19.0327 21.8773 19.9742 23.5575 21.1382 25.0731C21.3006 25.2774 21.4916 25.4561 21.7053 25.6034C21.7603 25.6576 21.8285 25.6958 21.9029 25.714C21.9773 25.7323 22.0551 25.73 22.1284 25.7073C22.2016 25.6847 22.2675 25.6425 22.3194 25.5851C22.3712 25.5277 22.4071 25.4573 22.4233 25.381C22.5707 24.8864 22.6575 24.375 22.6816 23.8586C22.7018 22.8323 22.6816 22.1481 22.6246 21.1218C22.6449 20.7721 22.5291 20.4283 22.3023 20.165C22.0755 19.9018 21.7561 19.7404 21.4133 19.7158C21.1181 19.6644 21.0778 19.4181 21.2825 19.1718C21.6751 18.6621 22.2186 18.58 22.8091 18.5492C23.7016 18.4979 24.5975 18.5492 25.4933 18.5492H25.6879C26.0813 18.5482 26.4736 18.5883 26.8589 18.6689C27.0842 18.716 27.2886 18.836 27.4415 19.011C27.5945 19.1861 27.6879 19.4069 27.7078 19.6405C27.753 19.899 27.7733 20.1614 27.7682 20.4239C27.7447 21.5426 27.691 22.6613 27.6776 23.7834C27.6696 24.2266 27.709 24.6694 27.7951 25.1039C27.9259 25.6992 28.3252 25.8497 28.7345 25.4152C29.2446 24.857 29.7124 24.26 30.1337 23.6294C30.8912 22.4813 31.5151 21.2471 31.9925 19.9518C32.2508 19.2881 32.4488 19.141 33.1501 19.141H37.1059C37.3419 19.137 37.5772 19.1693 37.8038 19.2368C37.8838 19.2585 37.9585 19.2968 38.0234 19.3492C38.0882 19.4017 38.1418 19.4671 38.1808 19.5415C38.2199 19.616 38.2435 19.6978 38.2502 19.7819C38.2569 19.866 38.2466 19.9506 38.2199 20.0305C37.9886 20.8887 37.5916 21.6912 37.0522 22.391C36.247 23.5508 35.4014 24.6831 34.576 25.8121C34.4716 25.9598 34.3763 26.114 34.2908 26.2739C33.9822 26.8418 34.0056 27.1634 34.4519 27.6423C35.1699 28.395 35.9383 29.1031 36.6295 29.8763C37.1392 30.4397 37.5995 31.0475 38.0051 31.6929C38.5151 32.5276 38.2031 33.2939 37.2603 33.4308Z" fill="white"/>
</g>
<defs>
<clipPath id="clip0_585_378">
<rect width="51" height="52" fill="white"/>
</clipPath>
</defs>
</svg>
