<svg width="15" height="15" viewBox="0 0 15 15" fill="none" xmlns="http://www.w3.org/2000/svg">
<g clip-path="url(#clip0_514_2776)">
<path d="M11.6705 8.29549L6.70451 3.32951C6.49353 3.11853 6.20738 3 5.90902 3H1.125C0.503672 3 0 3.50367 0 4.125V8.90902C1.56018e-06 9.20738 0.118529 9.49353 0.329508 9.70451L5.29549 14.6705C5.7348 15.1098 6.44712 15.1099 6.88648 14.6705L11.6705 9.88648C12.1098 9.44714 12.1098 8.73483 11.6705 8.29549ZM2.625 6.75C2.00367 6.75 1.5 6.24633 1.5 5.625C1.5 5.00367 2.00367 4.5 2.625 4.5C3.24633 4.5 3.75 5.00367 3.75 5.625C3.75 6.24633 3.24633 6.75 2.625 6.75ZM14.6705 9.88648L9.88648 14.6705C9.44714 15.1098 8.73483 15.1098 8.29549 14.6705L8.28705 14.6621L12.3666 10.5825C12.765 10.1841 12.9844 9.65442 12.9844 9.09098C12.9844 8.52755 12.765 7.99784 12.3666 7.59942L7.76712 3H8.90902C9.20738 3 9.49353 3.11853 9.70451 3.32951L14.6705 8.29549C15.1098 8.73483 15.1098 9.44714 14.6705 9.88648Z" fill="#474747"/>
</g>
<defs>
<clipPath id="clip0_514_2776">
<rect width="15" height="15" fill="white"/>
</clipPath>
</defs>
</svg>
