<svg width="15" height="15" viewBox="0 0 15 15" fill="none" xmlns="http://www.w3.org/2000/svg">
<path d="M14.9094 7.60078C13.4971 4.70754 10.7013 2.75 7.49999 2.75C4.29868 2.75 1.50207 4.70891 0.0906108 7.60105C0.0310383 7.72479 0 7.86149 0 8.00014C0 8.13878 0.0310383 8.27549 0.0906108 8.39922C1.50285 11.2925 4.29868 13.25 7.49999 13.25C10.7013 13.25 13.4979 11.2911 14.9094 8.39895C14.9689 8.27521 15 8.13851 15 7.99986C15 7.86122 14.9689 7.72451 14.9094 7.60078ZM7.49999 11.9375C6.75831 11.9375 6.03328 11.7066 5.4166 11.2739C4.79991 10.8413 4.31927 10.2263 4.03544 9.50682C3.75161 8.78733 3.67735 7.99563 3.82204 7.23183C3.96674 6.46803 4.32389 5.76644 4.84834 5.21577C5.37278 4.6651 6.04097 4.29009 6.7684 4.13816C7.49583 3.98623 8.24983 4.0642 8.93505 4.36222C9.62027 4.66024 10.2059 5.16492 10.618 5.81244C11.0301 6.45996 11.25 7.22124 11.25 8C11.2502 8.51715 11.1534 9.02928 10.965 9.50711C10.7767 9.98495 10.5004 10.4191 10.1522 10.7848C9.8039 11.1505 9.39041 11.4405 8.93533 11.6383C8.48025 11.8361 7.99251 11.9378 7.49999 11.9375ZM7.49999 5.375C7.27684 5.37827 7.05514 5.41313 6.84087 5.47863C7.01749 5.73065 7.10225 6.04079 7.07977 6.3528C7.05729 6.66481 6.92906 6.95802 6.71835 7.17928C6.50763 7.40053 6.22837 7.53517 5.93122 7.55877C5.63407 7.58237 5.3387 7.49338 5.09868 7.30793C4.96201 7.83665 4.98668 8.39705 5.16923 8.91027C5.35177 9.42349 5.683 9.86369 6.11629 10.1689C6.54958 10.4741 7.06312 10.629 7.58461 10.6117C8.10611 10.5944 8.60931 10.4058 9.02339 10.0725C9.43747 9.73915 9.74158 9.27789 9.89291 8.75359C10.0442 8.22929 10.0352 7.66837 9.86699 7.14977C9.69881 6.63116 9.37997 6.18099 8.95536 5.86262C8.53075 5.54425 8.02174 5.37371 7.49999 5.375Z" fill="#474747"/>
</svg>
