<svg width="40" height="40" viewBox="0 0 40 40" fill="none" xmlns="http://www.w3.org/2000/svg">
<g clip-path="url(#clip0_107_241)">
<path fill-rule="evenodd" clip-rule="evenodd" d="M19.9998 0C8.97172 0 0 8.97172 0 19.9998C0 31.0283 8.97172 40 19.9998 40C31.0278 40 39.9999 31.0283 39.9999 19.9998C40 8.97172 31.0279 0 19.9998 0Z" fill="#F44336"/>
<path fill-rule="evenodd" clip-rule="evenodd" d="M17.3784 25.3405L15.5604 27.1585C14.9649 27.7541 14.171 28.0839 13.325 28.0861H13.3143C12.4744 28.0861 11.6898 27.764 11.1038 27.1777C10.5149 26.5891 10.1925 25.8001 10.1953 24.9562C10.1983 24.1104 10.5274 23.3166 11.1237 22.7211L15.7365 18.1071C16.3321 17.5116 17.1259 17.1821 17.972 17.1799H17.9827C18.8225 17.1799 19.6071 17.5016 20.1939 18.0884C20.6235 18.5173 20.915 19.0609 21.0374 19.6594C21.1417 20.1665 21.637 20.4938 22.1437 20.3898C22.6508 20.2862 22.9781 19.7905 22.8741 19.2827C22.6798 18.3276 22.2087 17.4508 21.5194 16.7616C20.5789 15.8219 19.3234 15.3048 17.9838 15.3048H17.9657C16.621 15.3092 15.3588 15.8337 14.411 16.7812L9.79706 21.3955C8.84917 22.343 8.32519 23.6055 8.32035 24.9499C8.31558 26.2969 8.8337 27.5595 9.77824 28.5032C10.7519 29.4776 12.0321 29.964 13.3143 29.964C14.6063 29.964 15.9002 29.4702 16.8868 28.4844L18.7039 26.6664C19.0707 26.3009 19.0707 25.7071 18.7039 25.3405C18.3376 24.975 17.7439 24.975 17.3784 25.3405ZM30.2167 11.5025C32.1714 13.4572 32.1714 16.6368 30.2167 18.5914L25.6337 23.1744C24.6564 24.1517 23.3728 24.64 22.0893 24.64C20.8057 24.64 19.5221 24.1517 18.5448 23.1744C17.8549 22.4852 17.3861 21.6148 17.1868 20.6595C17.0814 20.1524 17.4071 19.6557 17.9142 19.551C18.4205 19.4452 18.9173 19.7703 19.0227 20.2774C19.1456 20.8727 19.4403 21.4188 19.8703 21.8484C21.0938 23.072 23.0846 23.072 24.3081 21.8484L28.8907 17.2659C30.1142 16.0423 30.1142 14.0516 28.8907 12.8284C28.3007 12.2384 27.5135 11.9141 26.6721 11.9141C25.8304 11.9141 25.0421 12.2384 24.4532 12.8284L22.6478 14.6338C22.2811 14.9994 21.6882 14.9994 21.3219 14.6338C20.9556 14.2675 20.9556 13.6734 21.3219 13.3079L23.1273 11.5025C24.071 10.5587 25.3296 10.0391 26.6721 10.0391C28.0143 10.0391 29.2728 10.5587 30.2167 11.5025Z" fill="white"/>
</g>
<defs>
<clipPath id="clip0_107_241">
<rect width="40" height="40" fill="white"/>
</clipPath>
</defs>
</svg>
