<?xml version="1.0" standalone="no"?>
<!DOCTYPE svg PUBLIC "-//W3C//DTD SVG 20010904//EN"
 "http://www.w3.org/TR/2001/REC-SVG-20010904/DTD/svg10.dtd">
<svg version="1.0" xmlns="http://www.w3.org/2000/svg"
 width="700.000000pt" height="700.000000pt" viewBox="0 0 700.000000 700.000000"
 preserveAspectRatio="xMidYMid meet">
<metadata>
Created by potrace 1.14, written by Peter Selinger 2001-2017
</metadata>
<g transform="translate(0.000000,700.000000) scale(0.100000,-0.100000)"
fill="#000000" stroke="none">
<path d="M3275 6489 c-462 -47 -878 -215 -1255 -507 -117 -91 -340 -316 -432
-438 -287 -378 -467 -826 -518 -1289 -14 -128 -14 -422 0 -545 82 -739 476
-1408 1075 -1825 783 -546 1798 -576 2613 -77 39 24 72 45 72 47 0 2 -48 -16
-107 -40 -278 -111 -523 -159 -823 -159 -206 -1 -300 9 -488 51 -234 51 -516
169 -717 300 -490 321 -853 838 -989 1408 -81 344 -87 718 -15 1067 47 230
165 528 293 738 123 201 317 425 498 577 302 251 685 423 1093 490 152 24 476
24 635 0 142 -23 353 -76 456 -116 43 -17 80 -29 82 -27 6 7 -171 103 -275
150 -361 161 -811 235 -1198 195z"/>
<path d="M3690 6009 c-227 -19 -488 -92 -705 -199 -493 -243 -856 -662 -1029
-1191 -79 -239 -108 -423 -108 -684 -1 -343 66 -633 217 -940 189 -387 441
-647 805 -834 229 -117 442 -184 695 -217 181 -24 487 -14 655 21 245 51 513
160 708 288 607 397 975 1129 922 1830 -65 860 -611 1583 -1386 1836 -255 83
-507 112 -774 90z m300 -436 c182 -107 359 -365 468 -684 46 -133 99 -335 91
-343 -13 -14 -170 -26 -395 -33 l-241 -6 -6 99 c-4 54 -7 303 -7 552 0 359 3
452 13 452 7 0 41 -17 77 -37z m-330 -530 l0 -546 -207 6 c-201 7 -443 24
-452 32 -2 2 6 48 19 102 48 206 165 486 271 648 69 105 207 242 279 277 99
49 90 103 90 -519z m-490 472 c0 -3 -19 -35 -43 -72 -167 -263 -278 -513 -342
-772 -13 -51 -27 -97 -32 -102 -11 -11 -146 7 -355 47 -105 20 -138 30 -138
41 0 29 84 173 161 277 173 233 355 386 633 533 98 51 116 59 116 48z m1380
-105 c201 -101 433 -303 575 -500 68 -95 155 -238 155 -256 0 -24 -422 -107
-464 -91 -9 4 -16 16 -16 27 0 36 -68 294 -106 402 -39 109 -119 282 -179 386
-20 34 -34 62 -31 62 4 0 33 -13 66 -30z m845 -1017 c49 -193 69 -508 46 -713
-22 -187 -82 -430 -108 -430 -7 0 -113 22 -236 49 -122 27 -233 51 -247 53
-20 2 -25 8 -24 28 1 14 7 113 14 220 8 126 11 288 7 456 l-6 262 97 12 c104
13 366 64 404 80 37 14 45 12 53 -17z m-3090 -17 c39 -8 146 -26 239 -40 92
-14 171 -27 174 -30 3 -3 -1 -52 -9 -108 -19 -138 -16 -528 5 -712 12 -104 13
-142 5 -147 -7 -4 -55 -12 -108 -19 -80 -9 -219 -31 -366 -57 -36 -6 -42 3
-74 118 -78 278 -88 591 -30 881 25 128 33 142 67 134 15 -3 59 -12 97 -20z
m838 -107 c58 -6 195 -13 304 -17 l198 -7 0 -430 0 -430 -335 -7 c-187 -4
-339 -3 -344 2 -12 12 -34 208 -42 386 -6 134 4 363 22 482 5 30 7 32 48 32
23 0 90 -5 149 -11z m1450 -49 c5 -30 9 -170 10 -310 1 -243 -9 -398 -34 -493
l-10 -38 -97 6 c-53 3 -209 8 -346 11 l-248 6 6 92 c3 50 9 243 12 429 l7 337
161 1 c89 1 208 5 266 9 58 4 141 7 185 6 l80 -1 8 -55z m-945 -1563 l2 -488
-22 7 c-46 14 -135 79 -204 148 -134 133 -265 365 -349 616 -24 74 -45 145
-45 157 0 20 6 22 93 28 159 11 410 23 467 21 l55 -1 3 -488z m799 452 l65
-11 -6 -42 c-12 -71 -94 -304 -145 -410 -99 -204 -238 -372 -371 -448 -110
-64 -100 -109 -100 449 l0 486 246 -6 c136 -4 276 -12 311 -18z m-1617 -126
c60 -211 175 -461 289 -628 34 -49 57 -91 52 -93 -16 -5 -150 61 -249 122
-181 113 -340 258 -466 426 -116 155 -144 211 -112 223 30 12 357 63 416 66
l36 1 34 -117z m2241 67 c78 -16 145 -32 150 -37 12 -12 -103 -180 -195 -285
-130 -149 -269 -264 -451 -373 -59 -36 -112 -65 -117 -65 -5 0 3 19 17 43 111
181 218 449 285 716 l11 43 80 -6 c43 -4 143 -20 220 -36z"/>
<path d="M5924 5090 c233 -511 290 -1209 147 -1795 -241 -985 -978 -1747
-1935 -2000 -230 -61 -376 -79 -656 -79 -278 0 -408 16 -648 79 -358 95 -732
287 -1012 523 -528 443 -872 1059 -975 1742 -69 462 -12 1004 149 1414 20 50
34 91 32 93 -2 2 -19 -24 -39 -59 -148 -266 -259 -568 -321 -868 -213 -1039
102 -2089 846 -2816 453 -443 989 -707 1623 -800 184 -28 572 -25 764 5 636
98 1190 384 1642 847 460 473 740 1055 835 1735 25 174 25 586 1 759 -60 431
-189 812 -387 1143 -84 142 -108 169 -66 77z"/>
</g>
</svg>
