<?xml version="1.0" standalone="no"?>
<!DOCTYPE svg PUBLIC "-//W3C//DTD SVG 20010904//EN"
 "http://www.w3.org/TR/2001/REC-SVG-20010904/DTD/svg10.dtd">
<svg version="1.0" xmlns="http://www.w3.org/2000/svg"
 width="700.000000pt" height="700.000000pt" viewBox="0 0 700.000000 700.000000"
 preserveAspectRatio="xMidYMid meet">
<metadata>
Created by potrace 1.14, written by Peter Selinger 2001-2017
</metadata>
<g transform="translate(0.000000,700.000000) scale(0.100000,-0.100000)"
fill="#000000" stroke="none">
<path d="M469 6985 c-222 -54 -387 -214 -448 -435 l-21 -74 1 -2976 c0 -2873
1 -2977 19 -3046 46 -177 158 -313 320 -392 137 -67 -109 -62 3175 -59 1639 1
2991 5 3005 9 239 59 402 219 467 455 4 15 9 1371 10 3013 3 3301 8 3043 -62
3185 -32 67 -44 84 -99 145 -72 79 -176 140 -287 169 -72 19 -137 20 -3049 20
-2467 -1 -2985 -3 -3031 -14z"/>
</g>
</svg>
